<?xml version="1.0" encoding="utf-8" standalone="no"?>
<!DOCTYPE svg PUBLIC "-//W3C//DTD SVG 1.1//EN"
  "http://www.w3.org/Graphics/SVG/1.1/DTD/svg11.dtd">
<svg xmlns:xlink="http://www.w3.org/1999/xlink" width="675.850457pt" height="542.656395pt" viewBox="0 0 675.850457 542.656395" xmlns="http://www.w3.org/2000/svg" version="1.1">
 <metadata>
  <rdf:RDF xmlns:dc="http://purl.org/dc/elements/1.1/" xmlns:cc="http://creativecommons.org/ns#" xmlns:rdf="http://www.w3.org/1999/02/22-rdf-syntax-ns#">
   <cc:Work>
    <dc:type rdf:resource="http://purl.org/dc/dcmitype/StillImage"/>
    <dc:date>2025-11-24T18:12:12.049169</dc:date>
    <dc:format>image/svg+xml</dc:format>
    <dc:creator>
     <cc:Agent>
      <dc:title>Matplotlib v3.6.3, https://matplotlib.org/</dc:title>
     </cc:Agent>
    </dc:creator>
   </cc:Work>
  </rdf:RDF>
 </metadata>
 <defs>
  <style type="text/css">*{stroke-linejoin: round; stroke-linecap: butt}</style>
 </defs>
 <g id="figure_1">
  <g id="patch_1">
   <path d="M 0 542.656395 
L 675.850457 542.656395 
L 675.850457 0 
L 0 0 
z
" style="fill: #ffffff"/>
  </g>
  <g id="axes_1">
   <g id="patch_2">
    <path d="M 58.523438 166.992228 
L 668.650457 166.992228 
L 668.650457 22.798125 
L 58.523438 22.798125 
z
" style="fill: #ffffff"/>
   </g>
   <g id="matplotlib.axis_1">
    <g id="xtick_1">
     <g id="line2d_1">
      <path d="M 61.914033 166.992228 
L 61.914033 22.798125 
" clip-path="url(#p98225b89ef)" style="fill: none; stroke-dasharray: 0.8,1.32; stroke-dashoffset: 0; stroke: #b0b0b0; stroke-opacity: 0.6; stroke-width: 0.8"/>
     </g>
     <g id="line2d_2">
      <defs>
       <path id="mdb7fd1f564" d="M 0 0 
L 0 3.5 
" style="stroke: #000000; stroke-width: 0.8"/>
      </defs>
      <g>
       <use xlink:href="#mdb7fd1f564" x="61.914033" y="166.992228" style="stroke: #000000; stroke-width: 0.8"/>
      </g>
     </g>
    </g>
    <g id="xtick_2">
     <g id="line2d_3">
      <path d="M 154.477221 166.992228 
L 154.477221 22.798125 
" clip-path="url(#p98225b89ef)" style="fill: none; stroke-dasharray: 0.8,1.32; stroke-dashoffset: 0; stroke: #b0b0b0; stroke-opacity: 0.6; stroke-width: 0.8"/>
     </g>
     <g id="line2d_4">
      <g>
       <use xlink:href="#mdb7fd1f564" x="154.477221" y="166.992228" style="stroke: #000000; stroke-width: 0.8"/>
      </g>
     </g>
    </g>
    <g id="xtick_3">
     <g id="line2d_5">
      <path d="M 247.040409 166.992228 
L 247.040409 22.798125 
" clip-path="url(#p98225b89ef)" style="fill: none; stroke-dasharray: 0.8,1.32; stroke-dashoffset: 0; stroke: #b0b0b0; stroke-opacity: 0.6; stroke-width: 0.8"/>
     </g>
     <g id="line2d_6">
      <g>
       <use xlink:href="#mdb7fd1f564" x="247.040409" y="166.992228" style="stroke: #000000; stroke-width: 0.8"/>
      </g>
     </g>
    </g>
    <g id="xtick_4">
     <g id="line2d_7">
      <path d="M 339.603597 166.992228 
L 339.603597 22.798125 
" clip-path="url(#p98225b89ef)" style="fill: none; stroke-dasharray: 0.8,1.32; stroke-dashoffset: 0; stroke: #b0b0b0; stroke-opacity: 0.6; stroke-width: 0.8"/>
     </g>
     <g id="line2d_8">
      <g>
       <use xlink:href="#mdb7fd1f564" x="339.603597" y="166.992228" style="stroke: #000000; stroke-width: 0.8"/>
      </g>
     </g>
    </g>
    <g id="xtick_5">
     <g id="line2d_9">
      <path d="M 432.166786 166.992228 
L 432.166786 22.798125 
" clip-path="url(#p98225b89ef)" style="fill: none; stroke-dasharray: 0.8,1.32; stroke-dashoffset: 0; stroke: #b0b0b0; stroke-opacity: 0.6; stroke-width: 0.8"/>
     </g>
     <g id="line2d_10">
      <g>
       <use xlink:href="#mdb7fd1f564" x="432.166786" y="166.992228" style="stroke: #000000; stroke-width: 0.8"/>
      </g>
     </g>
    </g>
    <g id="xtick_6">
     <g id="line2d_11">
      <path d="M 524.729974 166.992228 
L 524.729974 22.798125 
" clip-path="url(#p98225b89ef)" style="fill: none; stroke-dasharray: 0.8,1.32; stroke-dashoffset: 0; stroke: #b0b0b0; stroke-opacity: 0.6; stroke-width: 0.8"/>
     </g>
     <g id="line2d_12">
      <g>
       <use xlink:href="#mdb7fd1f564" x="524.729974" y="166.992228" style="stroke: #000000; stroke-width: 0.8"/>
      </g>
     </g>
    </g>
    <g id="xtick_7">
     <g id="line2d_13">
      <path d="M 617.293162 166.992228 
L 617.293162 22.798125 
" clip-path="url(#p98225b89ef)" style="fill: none; stroke-dasharray: 0.8,1.32; stroke-dashoffset: 0; stroke: #b0b0b0; stroke-opacity: 0.6; stroke-width: 0.8"/>
     </g>
     <g id="line2d_14">
      <g>
       <use xlink:href="#mdb7fd1f564" x="617.293162" y="166.992228" style="stroke: #000000; stroke-width: 0.8"/>
      </g>
     </g>
    </g>
   </g>
   <g id="matplotlib.axis_2">
    <g id="ytick_1">
     <g id="line2d_15">
      <path d="M 58.523438 160.437951 
L 668.650457 160.437951 
" clip-path="url(#p98225b89ef)" style="fill: none; stroke-dasharray: 0.8,1.32; stroke-dashoffset: 0; stroke: #b0b0b0; stroke-opacity: 0.6; stroke-width: 0.8"/>
     </g>
     <g id="line2d_16">
      <defs>
       <path id="m65f26cf97a" d="M 0 0 
L -3.5 0 
" style="stroke: #000000; stroke-width: 0.8"/>
      </defs>
      <g>
       <use xlink:href="#m65f26cf97a" x="58.523438" y="160.437951" style="stroke: #000000; stroke-width: 0.8"/>
      </g>
     </g>
     <g id="text_1">
      <!-- 0 -->
      <g transform="translate(45.160938 164.23717) scale(0.1 -0.1)">
       <defs>
        <path id="DejaVuSans-30" d="M 2034 4250 
Q 1547 4250 1301 3770 
Q 1056 3291 1056 2328 
Q 1056 1369 1301 889 
Q 1547 409 2034 409 
Q 2525 409 2770 889 
Q 3016 1369 3016 2328 
Q 3016 3291 2770 3770 
Q 2525 4250 2034 4250 
z
M 2034 4750 
Q 2819 4750 3233 4129 
Q 3647 3509 3647 2328 
Q 3647 1150 3233 529 
Q 2819 -91 2034 -91 
Q 1250 -91 836 529 
Q 422 1150 422 2328 
Q 422 3509 836 4129 
Q 1250 4750 2034 4750 
z
" transform="scale(0.015625)"/>
       </defs>
       <use xlink:href="#DejaVuSans-30"/>
      </g>
     </g>
    </g>
    <g id="ytick_2">
     <g id="line2d_17">
      <path d="M 58.523438 131.307829 
L 668.650457 131.307829 
" clip-path="url(#p98225b89ef)" style="fill: none; stroke-dasharray: 0.8,1.32; stroke-dashoffset: 0; stroke: #b0b0b0; stroke-opacity: 0.6; stroke-width: 0.8"/>
     </g>
     <g id="line2d_18">
      <g>
       <use xlink:href="#m65f26cf97a" x="58.523438" y="131.307829" style="stroke: #000000; stroke-width: 0.8"/>
      </g>
     </g>
     <g id="text_2">
      <!-- 10 -->
      <g transform="translate(38.798438 135.107048) scale(0.1 -0.1)">
       <defs>
        <path id="DejaVuSans-31" d="M 794 531 
L 1825 531 
L 1825 4091 
L 703 3866 
L 703 4441 
L 1819 4666 
L 2450 4666 
L 2450 531 
L 3481 531 
L 3481 0 
L 794 0 
L 794 531 
z
" transform="scale(0.015625)"/>
       </defs>
       <use xlink:href="#DejaVuSans-31"/>
       <use xlink:href="#DejaVuSans-30" x="63.623047"/>
      </g>
     </g>
    </g>
    <g id="ytick_3">
     <g id="line2d_19">
      <path d="M 58.523438 102.177707 
L 668.650457 102.177707 
" clip-path="url(#p98225b89ef)" style="fill: none; stroke-dasharray: 0.8,1.32; stroke-dashoffset: 0; stroke: #b0b0b0; stroke-opacity: 0.6; stroke-width: 0.8"/>
     </g>
     <g id="line2d_20">
      <g>
       <use xlink:href="#m65f26cf97a" x="58.523438" y="102.177707" style="stroke: #000000; stroke-width: 0.8"/>
      </g>
     </g>
     <g id="text_3">
      <!-- 20 -->
      <g transform="translate(38.798438 105.976926) scale(0.1 -0.1)">
       <defs>
        <path id="DejaVuSans-32" d="M 1228 531 
L 3431 531 
L 3431 0 
L 469 0 
L 469 531 
Q 828 903 1448 1529 
Q 2069 2156 2228 2338 
Q 2531 2678 2651 2914 
Q 2772 3150 2772 3378 
Q 2772 3750 2511 3984 
Q 2250 4219 1831 4219 
Q 1534 4219 1204 4116 
Q 875 4013 500 3803 
L 500 4441 
Q 881 4594 1212 4672 
Q 1544 4750 1819 4750 
Q 2544 4750 2975 4387 
Q 3406 4025 3406 3419 
Q 3406 3131 3298 2873 
Q 3191 2616 2906 2266 
Q 2828 2175 2409 1742 
Q 1991 1309 1228 531 
z
" transform="scale(0.015625)"/>
       </defs>
       <use xlink:href="#DejaVuSans-32"/>
       <use xlink:href="#DejaVuSans-30" x="63.623047"/>
      </g>
     </g>
    </g>
    <g id="ytick_4">
     <g id="line2d_21">
      <path d="M 58.523438 73.047585 
L 668.650457 73.047585 
" clip-path="url(#p98225b89ef)" style="fill: none; stroke-dasharray: 0.8,1.32; stroke-dashoffset: 0; stroke: #b0b0b0; stroke-opacity: 0.6; stroke-width: 0.8"/>
     </g>
     <g id="line2d_22">
      <g>
       <use xlink:href="#m65f26cf97a" x="58.523438" y="73.047585" style="stroke: #000000; stroke-width: 0.8"/>
      </g>
     </g>
     <g id="text_4">
      <!-- 30 -->
      <g transform="translate(38.798438 76.846804) scale(0.1 -0.1)">
       <defs>
        <path id="DejaVuSans-33" d="M 2597 2516 
Q 3050 2419 3304 2112 
Q 3559 1806 3559 1356 
Q 3559 666 3084 287 
Q 2609 -91 1734 -91 
Q 1441 -91 1130 -33 
Q 819 25 488 141 
L 488 750 
Q 750 597 1062 519 
Q 1375 441 1716 441 
Q 2309 441 2620 675 
Q 2931 909 2931 1356 
Q 2931 1769 2642 2001 
Q 2353 2234 1838 2234 
L 1294 2234 
L 1294 2753 
L 1863 2753 
Q 2328 2753 2575 2939 
Q 2822 3125 2822 3475 
Q 2822 3834 2567 4026 
Q 2313 4219 1838 4219 
Q 1578 4219 1281 4162 
Q 984 4106 628 3988 
L 628 4550 
Q 988 4650 1302 4700 
Q 1616 4750 1894 4750 
Q 2613 4750 3031 4423 
Q 3450 4097 3450 3541 
Q 3450 3153 3228 2886 
Q 3006 2619 2597 2516 
z
" transform="scale(0.015625)"/>
       </defs>
       <use xlink:href="#DejaVuSans-33"/>
       <use xlink:href="#DejaVuSans-30" x="63.623047"/>
      </g>
     </g>
    </g>
    <g id="ytick_5">
     <g id="line2d_23">
      <path d="M 58.523438 43.917463 
L 668.650457 43.917463 
" clip-path="url(#p98225b89ef)" style="fill: none; stroke-dasharray: 0.8,1.32; stroke-dashoffset: 0; stroke: #b0b0b0; stroke-opacity: 0.6; stroke-width: 0.8"/>
     </g>
     <g id="line2d_24">
      <g>
       <use xlink:href="#m65f26cf97a" x="58.523438" y="43.917463" style="stroke: #000000; stroke-width: 0.8"/>
      </g>
     </g>
     <g id="text_5">
      <!-- 40 -->
      <g transform="translate(38.798438 47.716682) scale(0.1 -0.1)">
       <defs>
        <path id="DejaVuSans-34" d="M 2419 4116 
L 825 1625 
L 2419 1625 
L 2419 4116 
z
M 2253 4666 
L 3047 4666 
L 3047 1625 
L 3713 1625 
L 3713 1100 
L 3047 1100 
L 3047 0 
L 2419 0 
L 2419 1100 
L 313 1100 
L 313 1709 
L 2253 4666 
z
" transform="scale(0.015625)"/>
       </defs>
       <use xlink:href="#DejaVuSans-34"/>
       <use xlink:href="#DejaVuSans-30" x="63.623047"/>
      </g>
     </g>
    </g>
    <g id="text_6">
     <!-- Posición (°/mm) -->
     <g transform="translate(32.71875 134.563927) rotate(-90) scale(0.1 -0.1)">
      <defs>
       <path id="DejaVuSans-50" d="M 1259 4147 
L 1259 2394 
L 2053 2394 
Q 2494 2394 2734 2622 
Q 2975 2850 2975 3272 
Q 2975 3691 2734 3919 
Q 2494 4147 2053 4147 
L 1259 4147 
z
M 628 4666 
L 2053 4666 
Q 2838 4666 3239 4311 
Q 3641 3956 3641 3272 
Q 3641 2581 3239 2228 
Q 2838 1875 2053 1875 
L 1259 1875 
L 1259 0 
L 628 0 
L 628 4666 
z
" transform="scale(0.015625)"/>
       <path id="DejaVuSans-6f" d="M 1959 3097 
Q 1497 3097 1228 2736 
Q 959 2375 959 1747 
Q 959 1119 1226 758 
Q 1494 397 1959 397 
Q 2419 397 2687 759 
Q 2956 1122 2956 1747 
Q 2956 2369 2687 2733 
Q 2419 3097 1959 3097 
z
M 1959 3584 
Q 2709 3584 3137 3096 
Q 3566 2609 3566 1747 
Q 3566 888 3137 398 
Q 2709 -91 1959 -91 
Q 1206 -91 779 398 
Q 353 888 353 1747 
Q 353 2609 779 3096 
Q 1206 3584 1959 3584 
z
" transform="scale(0.015625)"/>
       <path id="DejaVuSans-73" d="M 2834 3397 
L 2834 2853 
Q 2591 2978 2328 3040 
Q 2066 3103 1784 3103 
Q 1356 3103 1142 2972 
Q 928 2841 928 2578 
Q 928 2378 1081 2264 
Q 1234 2150 1697 2047 
L 1894 2003 
Q 2506 1872 2764 1633 
Q 3022 1394 3022 966 
Q 3022 478 2636 193 
Q 2250 -91 1575 -91 
Q 1294 -91 989 -36 
Q 684 19 347 128 
L 347 722 
Q 666 556 975 473 
Q 1284 391 1588 391 
Q 1994 391 2212 530 
Q 2431 669 2431 922 
Q 2431 1156 2273 1281 
Q 2116 1406 1581 1522 
L 1381 1569 
Q 847 1681 609 1914 
Q 372 2147 372 2553 
Q 372 3047 722 3315 
Q 1072 3584 1716 3584 
Q 2034 3584 2315 3537 
Q 2597 3491 2834 3397 
z
" transform="scale(0.015625)"/>
       <path id="DejaVuSans-69" d="M 603 3500 
L 1178 3500 
L 1178 0 
L 603 0 
L 603 3500 
z
M 603 4863 
L 1178 4863 
L 1178 4134 
L 603 4134 
L 603 4863 
z
" transform="scale(0.015625)"/>
       <path id="DejaVuSans-63" d="M 3122 3366 
L 3122 2828 
Q 2878 2963 2633 3030 
Q 2388 3097 2138 3097 
Q 1578 3097 1268 2742 
Q 959 2388 959 1747 
Q 959 1106 1268 751 
Q 1578 397 2138 397 
Q 2388 397 2633 464 
Q 2878 531 3122 666 
L 3122 134 
Q 2881 22 2623 -34 
Q 2366 -91 2075 -91 
Q 1284 -91 818 406 
Q 353 903 353 1747 
Q 353 2603 823 3093 
Q 1294 3584 2113 3584 
Q 2378 3584 2631 3529 
Q 2884 3475 3122 3366 
z
" transform="scale(0.015625)"/>
       <path id="DejaVuSans-f3" d="M 1959 3097 
Q 1497 3097 1228 2736 
Q 959 2375 959 1747 
Q 959 1119 1226 758 
Q 1494 397 1959 397 
Q 2419 397 2687 759 
Q 2956 1122 2956 1747 
Q 2956 2369 2687 2733 
Q 2419 3097 1959 3097 
z
M 1959 3584 
Q 2709 3584 3137 3096 
Q 3566 2609 3566 1747 
Q 3566 888 3137 398 
Q 2709 -91 1959 -91 
Q 1206 -91 779 398 
Q 353 888 353 1747 
Q 353 2609 779 3096 
Q 1206 3584 1959 3584 
z
M 2394 5119 
L 3016 5119 
L 1997 3944 
L 1519 3944 
L 2394 5119 
z
" transform="scale(0.015625)"/>
       <path id="DejaVuSans-6e" d="M 3513 2113 
L 3513 0 
L 2938 0 
L 2938 2094 
Q 2938 2591 2744 2837 
Q 2550 3084 2163 3084 
Q 1697 3084 1428 2787 
Q 1159 2491 1159 1978 
L 1159 0 
L 581 0 
L 581 3500 
L 1159 3500 
L 1159 2956 
Q 1366 3272 1645 3428 
Q 1925 3584 2291 3584 
Q 2894 3584 3203 3211 
Q 3513 2838 3513 2113 
z
" transform="scale(0.015625)"/>
       <path id="DejaVuSans-20" transform="scale(0.015625)"/>
       <path id="DejaVuSans-28" d="M 1984 4856 
Q 1566 4138 1362 3434 
Q 1159 2731 1159 2009 
Q 1159 1288 1364 580 
Q 1569 -128 1984 -844 
L 1484 -844 
Q 1016 -109 783 600 
Q 550 1309 550 2009 
Q 550 2706 781 3412 
Q 1013 4119 1484 4856 
L 1984 4856 
z
" transform="scale(0.015625)"/>
       <path id="DejaVuSans-b0" d="M 1600 4347 
Q 1350 4347 1178 4173 
Q 1006 4000 1006 3750 
Q 1006 3503 1178 3333 
Q 1350 3163 1600 3163 
Q 1850 3163 2022 3333 
Q 2194 3503 2194 3750 
Q 2194 3997 2020 4172 
Q 1847 4347 1600 4347 
z
M 1600 4750 
Q 1800 4750 1984 4673 
Q 2169 4597 2303 4453 
Q 2447 4313 2519 4134 
Q 2591 3956 2591 3750 
Q 2591 3338 2302 3052 
Q 2013 2766 1594 2766 
Q 1172 2766 890 3047 
Q 609 3328 609 3750 
Q 609 4169 896 4459 
Q 1184 4750 1600 4750 
z
" transform="scale(0.015625)"/>
       <path id="DejaVuSans-2f" d="M 1625 4666 
L 2156 4666 
L 531 -594 
L 0 -594 
L 1625 4666 
z
" transform="scale(0.015625)"/>
       <path id="DejaVuSans-6d" d="M 3328 2828 
Q 3544 3216 3844 3400 
Q 4144 3584 4550 3584 
Q 5097 3584 5394 3201 
Q 5691 2819 5691 2113 
L 5691 0 
L 5113 0 
L 5113 2094 
Q 5113 2597 4934 2840 
Q 4756 3084 4391 3084 
Q 3944 3084 3684 2787 
Q 3425 2491 3425 1978 
L 3425 0 
L 2847 0 
L 2847 2094 
Q 2847 2600 2669 2842 
Q 2491 3084 2119 3084 
Q 1678 3084 1418 2786 
Q 1159 2488 1159 1978 
L 1159 0 
L 581 0 
L 581 3500 
L 1159 3500 
L 1159 2956 
Q 1356 3278 1631 3431 
Q 1906 3584 2284 3584 
Q 2666 3584 2933 3390 
Q 3200 3197 3328 2828 
z
" transform="scale(0.015625)"/>
       <path id="DejaVuSans-29" d="M 513 4856 
L 1013 4856 
Q 1481 4119 1714 3412 
Q 1947 2706 1947 2009 
Q 1947 1309 1714 600 
Q 1481 -109 1013 -844 
L 513 -844 
Q 928 -128 1133 580 
Q 1338 1288 1338 2009 
Q 1338 2731 1133 3434 
Q 928 4138 513 4856 
z
" transform="scale(0.015625)"/>
      </defs>
      <use xlink:href="#DejaVuSans-50"/>
      <use xlink:href="#DejaVuSans-6f" x="56.677734"/>
      <use xlink:href="#DejaVuSans-73" x="117.859375"/>
      <use xlink:href="#DejaVuSans-69" x="169.958984"/>
      <use xlink:href="#DejaVuSans-63" x="197.742188"/>
      <use xlink:href="#DejaVuSans-69" x="252.722656"/>
      <use xlink:href="#DejaVuSans-f3" x="280.505859"/>
      <use xlink:href="#DejaVuSans-6e" x="341.6875"/>
      <use xlink:href="#DejaVuSans-20" x="405.066406"/>
      <use xlink:href="#DejaVuSans-28" x="436.853516"/>
      <use xlink:href="#DejaVuSans-b0" x="475.867188"/>
      <use xlink:href="#DejaVuSans-2f" x="525.867188"/>
      <use xlink:href="#DejaVuSans-6d" x="559.558594"/>
      <use xlink:href="#DejaVuSans-6d" x="656.970703"/>
      <use xlink:href="#DejaVuSans-29" x="754.382812"/>
     </g>
    </g>
   </g>
   <g id="line2d_25">
    <path d="M 86.256484 29.352402 
L 93.668956 29.352402 
L 99.158583 29.352402 
L 105.567398 29.352402 
L 111.675689 29.352402 
L 117.319109 29.352402 
L 123.817002 29.352402 
L 130.995258 29.352402 
L 136.644046 29.352402 
L 141.841933 29.352402 
L 148.168466 29.352402 
L 154.419723 29.352402 
L 162.140209 29.352402 
L 169.759448 29.352402 
L 175.322604 29.352402 
L 181.821115 29.352402 
L 190.769636 29.352402 
L 202.253366 29.352402 
L 208.91794 29.352402 
L 217.33945 29.352402 
L 222.941809 29.352402 
L 230.242008 29.352402 
L 237.824238 29.352402 
L 244.227138 29.352402 
L 251.204471 29.352402 
L 257.303316 29.352402 
L 263.737113 29.352402 
L 269.783558 29.352402 
L 275.532696 29.352402 
L 281.222386 29.352402 
L 287.515693 29.352402 
L 293.08814 29.352402 
L 298.67661 29.352402 
L 303.881916 29.352402 
L 310.125718 29.352402 
L 315.75494 29.352402 
L 322.136742 29.352402 
L 327.73456 29.352402 
L 333.242019 29.352402 
L 338.500767 29.352402 
L 344.12885 29.352402 
L 350.044277 29.352402 
L 355.771484 29.352402 
L 362.087861 29.352402 
L 367.605212 29.352402 
L 372.691643 29.352402 
L 378.217119 29.352402 
L 383.905043 29.352402 
L 389.307521 29.352402 
L 394.948152 29.352402 
L 401.197268 29.352402 
L 406.702044 29.352402 
L 411.621432 29.352402 
L 417.289901 29.352402 
L 423.498119 29.352402 
L 428.636773 29.352402 
L 434.453063 29.352402 
L 440.588693 29.352402 
L 446.832185 29.352402 
L 452.431208 29.352402 
L 457.971934 29.352402 
L 463.773208 29.352402 
L 469.180863 29.352402 
L 474.671241 29.352402 
L 480.134682 29.352402 
L 486.276169 29.352402 
L 491.322147 29.352402 
L 496.76171 29.352402 
L 503.012821 29.352402 
L 508.695277 29.352402 
L 513.867904 29.352402 
L 520.178172 29.352402 
L 525.691957 29.352402 
L 531.394976 29.352402 
L 536.951406 29.352402 
L 542.236619 29.352402 
L 547.985723 29.352402 
L 553.021607 29.352402 
L 559.139026 29.352402 
L 564.240534 29.352402 
L 585.097071 29.352402 
L 590.21107 29.352402 
L 593.528851 29.352402 
L 596.267578 29.352402 
L 600.715224 29.352402 
L 604.431201 29.352402 
L 607.235654 29.352402 
L 611.773238 29.352402 
L 615.281822 29.352402 
L 618.363141 29.352402 
L 621.160637 29.352402 
L 624.2368 29.352402 
L 627.723854 29.352402 
L 631.397172 29.352402 
L 634.728296 29.352402 
L 637.830288 29.352402 
L 640.917411 29.352402 
" clip-path="url(#p98225b89ef)" style="fill: none; stroke: #d62728; stroke-width: 1.5; stroke-linecap: square"/>
   </g>
   <g id="line2d_26">
    <path d="M 86.256484 160.437951 
L 93.668956 160.437951 
L 99.158583 160.437951 
L 105.567398 160.437951 
L 111.675689 160.437951 
L 117.319109 160.437951 
L 123.817002 160.437951 
L 130.995258 160.437951 
L 136.644046 160.437951 
L 141.841933 160.437951 
L 148.168466 160.437951 
L 154.419723 160.437951 
L 162.140209 160.437951 
L 169.759448 160.437951 
L 175.322604 160.437951 
L 181.821115 160.437951 
L 190.769636 160.437951 
L 202.253366 160.437951 
L 208.91794 160.437951 
L 217.33945 160.437951 
L 222.941809 160.437951 
L 230.242008 160.437951 
L 237.824238 160.437951 
L 244.227138 160.437951 
L 251.204471 160.437951 
L 257.303316 160.437951 
L 263.737113 160.437951 
L 269.783558 160.437951 
L 275.532696 160.437951 
L 281.222386 160.437951 
L 287.515693 160.437951 
L 293.08814 160.437951 
L 298.67661 160.437951 
L 303.881916 160.437951 
L 310.125718 160.437951 
L 315.75494 160.437951 
L 322.136742 160.437951 
L 327.73456 160.437951 
L 333.242019 160.437951 
L 338.500767 160.437951 
L 344.12885 160.437951 
L 350.044277 160.437951 
L 355.771484 160.437951 
L 362.087861 160.437951 
L 367.605212 160.437951 
L 372.691643 160.437951 
L 378.217119 160.437951 
L 383.905043 160.437951 
L 389.307521 160.437951 
L 394.948152 160.437951 
L 401.197268 160.437951 
L 406.702044 160.437951 
L 411.621432 160.437951 
L 417.289901 160.437951 
L 423.498119 160.437951 
L 428.636773 160.437951 
L 434.453063 160.437951 
L 440.588693 160.437951 
L 446.832185 160.437951 
L 452.431208 160.437951 
L 457.971934 160.437951 
L 463.773208 160.437951 
L 469.180863 160.437951 
L 474.671241 160.437951 
L 480.134682 160.437951 
L 486.276169 160.437951 
L 491.322147 160.437951 
L 496.76171 160.437951 
L 503.012821 160.437951 
L 508.695277 160.437951 
L 513.867904 160.437951 
L 520.178172 160.437951 
L 525.691957 160.437951 
L 531.394976 160.437951 
L 536.951406 160.437951 
L 542.236619 160.437951 
L 547.985723 160.437951 
L 553.021607 160.437951 
L 559.139026 160.437951 
L 564.240534 160.437951 
L 585.097071 160.437951 
L 590.21107 160.437951 
L 593.528851 160.437951 
L 596.267578 160.437951 
L 600.715224 160.437951 
L 604.431201 160.437951 
L 607.235654 160.437951 
L 611.773238 160.437951 
L 615.281822 160.437951 
L 618.363141 160.437951 
L 621.160637 160.437951 
L 624.2368 160.437951 
L 627.723854 160.437951 
L 631.397172 160.437951 
L 634.728296 160.437951 
L 637.830288 160.437951 
L 640.917411 160.437951 
" clip-path="url(#p98225b89ef)" style="fill: none; stroke-dasharray: 5.55,2.4; stroke-dashoffset: 0; stroke: #d62728; stroke-width: 1.5"/>
   </g>
   <g id="line2d_27">
    <path d="M 86.256484 29.352402 
L 93.668956 29.352402 
L 99.158583 29.352402 
L 105.567398 29.352402 
L 111.675689 29.352402 
L 117.319109 29.352402 
L 123.817002 29.352402 
L 130.995258 29.352402 
L 136.644046 29.352402 
L 141.841933 29.352402 
L 148.168466 29.352402 
L 154.419723 29.352402 
L 162.140209 29.352402 
L 169.759448 29.352402 
L 175.322604 29.352402 
L 181.821115 29.352402 
L 190.769636 29.352402 
L 202.253366 29.352402 
L 208.91794 29.352402 
L 217.33945 29.352402 
L 222.941809 29.352402 
L 230.242008 29.352402 
L 237.824238 29.352402 
L 244.227138 29.352402 
L 251.204471 29.352402 
L 257.303316 29.352402 
L 263.737113 29.352402 
L 269.783558 29.352402 
L 275.532696 29.352402 
L 281.222386 29.352402 
L 287.515693 29.352402 
L 293.08814 29.352402 
L 298.67661 29.352402 
L 303.881916 29.352402 
L 310.125718 29.352402 
L 315.75494 29.352402 
L 322.136742 29.352402 
L 327.73456 29.352402 
L 333.242019 29.352402 
L 338.500767 29.352402 
L 344.12885 29.352402 
L 350.044277 29.352402 
L 355.771484 29.352402 
L 362.087861 29.352402 
L 367.605212 29.352402 
L 372.691643 29.352402 
L 378.217119 29.352402 
L 383.905043 29.352402 
L 389.307521 29.352402 
L 394.948152 29.352402 
L 401.197268 29.352402 
L 406.702044 29.352402 
L 411.621432 29.352402 
L 417.289901 29.352402 
L 423.498119 29.352402 
L 428.636773 29.352402 
L 434.453063 29.352402 
L 440.588693 29.352402 
L 446.832185 29.352402 
L 452.431208 29.352402 
L 457.971934 29.352402 
L 463.773208 29.352402 
L 469.180863 29.352402 
L 474.671241 29.352402 
L 480.134682 29.352402 
L 486.276169 29.352402 
L 491.322147 29.352402 
L 496.76171 29.352402 
L 503.012821 29.352402 
L 508.695277 29.352402 
L 513.867904 29.352402 
L 520.178172 29.352402 
L 525.691957 29.352402 
L 531.394976 29.352402 
L 536.951406 29.352402 
L 542.236619 29.352402 
L 547.985723 29.352402 
L 553.021607 29.352402 
L 559.139026 29.352402 
L 564.240534 29.352402 
L 585.097071 29.352402 
L 590.21107 29.352402 
L 593.528851 29.352402 
L 596.267578 29.352402 
L 600.715224 29.352402 
L 604.431201 29.352402 
L 607.235654 29.352402 
L 611.773238 29.352402 
L 615.281822 29.352402 
L 618.363141 29.352402 
L 621.160637 29.352402 
L 624.2368 29.352402 
L 627.723854 29.352402 
L 631.397172 29.352402 
L 634.728296 29.352402 
L 637.830288 29.352402 
L 640.917411 29.352402 
" clip-path="url(#p98225b89ef)" style="fill: none; stroke-dasharray: 1.5,2.475; stroke-dashoffset: 0; stroke: #000000; stroke-opacity: 0.7; stroke-width: 1.5"/>
   </g>
   <g id="patch_3">
    <path d="M 58.523438 166.992228 
L 58.523438 22.798125 
" style="fill: none; stroke: #000000; stroke-width: 0.8; stroke-linejoin: miter; stroke-linecap: square"/>
   </g>
   <g id="patch_4">
    <path d="M 668.650457 166.992228 
L 668.650457 22.798125 
" style="fill: none; stroke: #000000; stroke-width: 0.8; stroke-linejoin: miter; stroke-linecap: square"/>
   </g>
   <g id="patch_5">
    <path d="M 58.523437 166.992228 
L 668.650457 166.992228 
" style="fill: none; stroke: #000000; stroke-width: 0.8; stroke-linejoin: miter; stroke-linecap: square"/>
   </g>
   <g id="patch_6">
    <path d="M 58.523437 22.798125 
L 668.650457 22.798125 
" style="fill: none; stroke: #000000; stroke-width: 0.8; stroke-linejoin: miter; stroke-linecap: square"/>
   </g>
   <g id="text_7">
    <!-- Posición y Error -->
    <g transform="translate(317.29601 16.798125) scale(0.12 -0.12)">
     <defs>
      <path id="DejaVuSans-79" d="M 2059 -325 
Q 1816 -950 1584 -1140 
Q 1353 -1331 966 -1331 
L 506 -1331 
L 506 -850 
L 844 -850 
Q 1081 -850 1212 -737 
Q 1344 -625 1503 -206 
L 1606 56 
L 191 3500 
L 800 3500 
L 1894 763 
L 2988 3500 
L 3597 3500 
L 2059 -325 
z
" transform="scale(0.015625)"/>
      <path id="DejaVuSans-45" d="M 628 4666 
L 3578 4666 
L 3578 4134 
L 1259 4134 
L 1259 2753 
L 3481 2753 
L 3481 2222 
L 1259 2222 
L 1259 531 
L 3634 531 
L 3634 0 
L 628 0 
L 628 4666 
z
" transform="scale(0.015625)"/>
      <path id="DejaVuSans-72" d="M 2631 2963 
Q 2534 3019 2420 3045 
Q 2306 3072 2169 3072 
Q 1681 3072 1420 2755 
Q 1159 2438 1159 1844 
L 1159 0 
L 581 0 
L 581 3500 
L 1159 3500 
L 1159 2956 
Q 1341 3275 1631 3429 
Q 1922 3584 2338 3584 
Q 2397 3584 2469 3576 
Q 2541 3569 2628 3553 
L 2631 2963 
z
" transform="scale(0.015625)"/>
     </defs>
     <use xlink:href="#DejaVuSans-50"/>
     <use xlink:href="#DejaVuSans-6f" x="56.677734"/>
     <use xlink:href="#DejaVuSans-73" x="117.859375"/>
     <use xlink:href="#DejaVuSans-69" x="169.958984"/>
     <use xlink:href="#DejaVuSans-63" x="197.742188"/>
     <use xlink:href="#DejaVuSans-69" x="252.722656"/>
     <use xlink:href="#DejaVuSans-f3" x="280.505859"/>
     <use xlink:href="#DejaVuSans-6e" x="341.6875"/>
     <use xlink:href="#DejaVuSans-20" x="405.066406"/>
     <use xlink:href="#DejaVuSans-79" x="436.853516"/>
     <use xlink:href="#DejaVuSans-20" x="496.033203"/>
     <use xlink:href="#DejaVuSans-45" x="527.820312"/>
     <use xlink:href="#DejaVuSans-72" x="591.003906"/>
     <use xlink:href="#DejaVuSans-72" x="630.367188"/>
     <use xlink:href="#DejaVuSans-6f" x="669.230469"/>
     <use xlink:href="#DejaVuSans-72" x="730.412109"/>
    </g>
   </g>
   <g id="legend_1">
    <g id="patch_7">
     <path d="M 502.151707 40.940625 
L 663.050457 40.940625 
Q 664.650457 40.940625 664.650457 39.340625 
L 664.650457 28.398125 
Q 664.650457 26.798125 663.050457 26.798125 
L 502.151707 26.798125 
Q 500.551707 26.798125 500.551707 28.398125 
L 500.551707 39.340625 
Q 500.551707 40.940625 502.151707 40.940625 
z
" style="fill: #ffffff; opacity: 0.8; stroke: #cccccc; stroke-linejoin: miter"/>
    </g>
    <g id="line2d_28">
     <path d="M 503.751707 33.276875 
L 511.751707 33.276875 
L 519.751707 33.276875 
" style="fill: none; stroke: #d62728; stroke-width: 1.5; stroke-linecap: square"/>
    </g>
    <g id="text_8">
     <!-- SP -->
     <g transform="translate(526.151707 36.076875) scale(0.08 -0.08)">
      <defs>
       <path id="DejaVuSans-53" d="M 3425 4513 
L 3425 3897 
Q 3066 4069 2747 4153 
Q 2428 4238 2131 4238 
Q 1616 4238 1336 4038 
Q 1056 3838 1056 3469 
Q 1056 3159 1242 3001 
Q 1428 2844 1947 2747 
L 2328 2669 
Q 3034 2534 3370 2195 
Q 3706 1856 3706 1288 
Q 3706 609 3251 259 
Q 2797 -91 1919 -91 
Q 1588 -91 1214 -16 
Q 841 59 441 206 
L 441 856 
Q 825 641 1194 531 
Q 1563 422 1919 422 
Q 2459 422 2753 634 
Q 3047 847 3047 1241 
Q 3047 1584 2836 1778 
Q 2625 1972 2144 2069 
L 1759 2144 
Q 1053 2284 737 2584 
Q 422 2884 422 3419 
Q 422 4038 858 4394 
Q 1294 4750 2059 4750 
Q 2388 4750 2728 4690 
Q 3069 4631 3425 4513 
z
" transform="scale(0.015625)"/>
      </defs>
      <use xlink:href="#DejaVuSans-53"/>
      <use xlink:href="#DejaVuSans-50" x="63.476562"/>
     </g>
    </g>
    <g id="line2d_29">
     <path d="M 552.054207 33.276875 
L 560.054207 33.276875 
L 568.054207 33.276875 
" style="fill: none; stroke-dasharray: 5.55,2.4; stroke-dashoffset: 0; stroke: #d62728; stroke-width: 1.5"/>
    </g>
    <g id="text_9">
     <!-- Medido -->
     <g transform="translate(574.454207 36.076875) scale(0.08 -0.08)">
      <defs>
       <path id="DejaVuSans-4d" d="M 628 4666 
L 1569 4666 
L 2759 1491 
L 3956 4666 
L 4897 4666 
L 4897 0 
L 4281 0 
L 4281 4097 
L 3078 897 
L 2444 897 
L 1241 4097 
L 1241 0 
L 628 0 
L 628 4666 
z
" transform="scale(0.015625)"/>
       <path id="DejaVuSans-65" d="M 3597 1894 
L 3597 1613 
L 953 1613 
Q 991 1019 1311 708 
Q 1631 397 2203 397 
Q 2534 397 2845 478 
Q 3156 559 3463 722 
L 3463 178 
Q 3153 47 2828 -22 
Q 2503 -91 2169 -91 
Q 1331 -91 842 396 
Q 353 884 353 1716 
Q 353 2575 817 3079 
Q 1281 3584 2069 3584 
Q 2775 3584 3186 3129 
Q 3597 2675 3597 1894 
z
M 3022 2063 
Q 3016 2534 2758 2815 
Q 2500 3097 2075 3097 
Q 1594 3097 1305 2825 
Q 1016 2553 972 2059 
L 3022 2063 
z
" transform="scale(0.015625)"/>
       <path id="DejaVuSans-64" d="M 2906 2969 
L 2906 4863 
L 3481 4863 
L 3481 0 
L 2906 0 
L 2906 525 
Q 2725 213 2448 61 
Q 2172 -91 1784 -91 
Q 1150 -91 751 415 
Q 353 922 353 1747 
Q 353 2572 751 3078 
Q 1150 3584 1784 3584 
Q 2172 3584 2448 3432 
Q 2725 3281 2906 2969 
z
M 947 1747 
Q 947 1113 1208 752 
Q 1469 391 1925 391 
Q 2381 391 2643 752 
Q 2906 1113 2906 1747 
Q 2906 2381 2643 2742 
Q 2381 3103 1925 3103 
Q 1469 3103 1208 2742 
Q 947 2381 947 1747 
z
" transform="scale(0.015625)"/>
      </defs>
      <use xlink:href="#DejaVuSans-4d"/>
      <use xlink:href="#DejaVuSans-65" x="86.279297"/>
      <use xlink:href="#DejaVuSans-64" x="147.802734"/>
      <use xlink:href="#DejaVuSans-69" x="211.279297"/>
      <use xlink:href="#DejaVuSans-64" x="239.0625"/>
      <use xlink:href="#DejaVuSans-6f" x="302.539062"/>
     </g>
    </g>
    <g id="line2d_30">
     <path d="M 619.554207 33.276875 
L 627.554207 33.276875 
L 635.554207 33.276875 
" style="fill: none; stroke-dasharray: 1.5,2.475; stroke-dashoffset: 0; stroke: #000000; stroke-opacity: 0.7; stroke-width: 1.5"/>
    </g>
    <g id="text_10">
     <!-- Error -->
     <g transform="translate(641.954207 36.076875) scale(0.08 -0.08)">
      <use xlink:href="#DejaVuSans-45"/>
      <use xlink:href="#DejaVuSans-72" x="63.183594"/>
      <use xlink:href="#DejaVuSans-72" x="102.546875"/>
      <use xlink:href="#DejaVuSans-6f" x="141.410156"/>
      <use xlink:href="#DejaVuSans-72" x="202.591797"/>
     </g>
    </g>
   </g>
  </g>
  <g id="axes_2">
   <g id="patch_8">
    <path d="M 58.523438 335.811812 
L 668.650457 335.811812 
L 668.650457 191.617708 
L 58.523438 191.617708 
z
" style="fill: #ffffff"/>
   </g>
   <g id="matplotlib.axis_3">
    <g id="xtick_8">
     <g id="line2d_31">
      <path d="M 61.914033 335.811812 
L 61.914033 191.617708 
" clip-path="url(#pc8af049c94)" style="fill: none; stroke-dasharray: 0.8,1.32; stroke-dashoffset: 0; stroke: #b0b0b0; stroke-opacity: 0.6; stroke-width: 0.8"/>
     </g>
     <g id="line2d_32">
      <g>
       <use xlink:href="#mdb7fd1f564" x="61.914033" y="335.811812" style="stroke: #000000; stroke-width: 0.8"/>
      </g>
     </g>
    </g>
    <g id="xtick_9">
     <g id="line2d_33">
      <path d="M 154.477221 335.811812 
L 154.477221 191.617708 
" clip-path="url(#pc8af049c94)" style="fill: none; stroke-dasharray: 0.8,1.32; stroke-dashoffset: 0; stroke: #b0b0b0; stroke-opacity: 0.6; stroke-width: 0.8"/>
     </g>
     <g id="line2d_34">
      <g>
       <use xlink:href="#mdb7fd1f564" x="154.477221" y="335.811812" style="stroke: #000000; stroke-width: 0.8"/>
      </g>
     </g>
    </g>
    <g id="xtick_10">
     <g id="line2d_35">
      <path d="M 247.040409 335.811812 
L 247.040409 191.617708 
" clip-path="url(#pc8af049c94)" style="fill: none; stroke-dasharray: 0.8,1.32; stroke-dashoffset: 0; stroke: #b0b0b0; stroke-opacity: 0.6; stroke-width: 0.8"/>
     </g>
     <g id="line2d_36">
      <g>
       <use xlink:href="#mdb7fd1f564" x="247.040409" y="335.811812" style="stroke: #000000; stroke-width: 0.8"/>
      </g>
     </g>
    </g>
    <g id="xtick_11">
     <g id="line2d_37">
      <path d="M 339.603597 335.811812 
L 339.603597 191.617708 
" clip-path="url(#pc8af049c94)" style="fill: none; stroke-dasharray: 0.8,1.32; stroke-dashoffset: 0; stroke: #b0b0b0; stroke-opacity: 0.6; stroke-width: 0.8"/>
     </g>
     <g id="line2d_38">
      <g>
       <use xlink:href="#mdb7fd1f564" x="339.603597" y="335.811812" style="stroke: #000000; stroke-width: 0.8"/>
      </g>
     </g>
    </g>
    <g id="xtick_12">
     <g id="line2d_39">
      <path d="M 432.166786 335.811812 
L 432.166786 191.617708 
" clip-path="url(#pc8af049c94)" style="fill: none; stroke-dasharray: 0.8,1.32; stroke-dashoffset: 0; stroke: #b0b0b0; stroke-opacity: 0.6; stroke-width: 0.8"/>
     </g>
     <g id="line2d_40">
      <g>
       <use xlink:href="#mdb7fd1f564" x="432.166786" y="335.811812" style="stroke: #000000; stroke-width: 0.8"/>
      </g>
     </g>
    </g>
    <g id="xtick_13">
     <g id="line2d_41">
      <path d="M 524.729974 335.811812 
L 524.729974 191.617708 
" clip-path="url(#pc8af049c94)" style="fill: none; stroke-dasharray: 0.8,1.32; stroke-dashoffset: 0; stroke: #b0b0b0; stroke-opacity: 0.6; stroke-width: 0.8"/>
     </g>
     <g id="line2d_42">
      <g>
       <use xlink:href="#mdb7fd1f564" x="524.729974" y="335.811812" style="stroke: #000000; stroke-width: 0.8"/>
      </g>
     </g>
    </g>
    <g id="xtick_14">
     <g id="line2d_43">
      <path d="M 617.293162 335.811812 
L 617.293162 191.617708 
" clip-path="url(#pc8af049c94)" style="fill: none; stroke-dasharray: 0.8,1.32; stroke-dashoffset: 0; stroke: #b0b0b0; stroke-opacity: 0.6; stroke-width: 0.8"/>
     </g>
     <g id="line2d_44">
      <g>
       <use xlink:href="#mdb7fd1f564" x="617.293162" y="335.811812" style="stroke: #000000; stroke-width: 0.8"/>
      </g>
     </g>
    </g>
   </g>
   <g id="matplotlib.axis_4">
    <g id="ytick_6">
     <g id="line2d_45">
      <path d="M 58.523438 316.148979 
L 668.650457 316.148979 
" clip-path="url(#pc8af049c94)" style="fill: none; stroke-dasharray: 0.8,1.32; stroke-dashoffset: 0; stroke: #b0b0b0; stroke-opacity: 0.6; stroke-width: 0.8"/>
     </g>
     <g id="line2d_46">
      <g>
       <use xlink:href="#m65f26cf97a" x="58.523438" y="316.148979" style="stroke: #000000; stroke-width: 0.8"/>
      </g>
     </g>
     <g id="text_11">
      <!-- −0.04 -->
      <g transform="translate(20.878125 319.948198) scale(0.1 -0.1)">
       <defs>
        <path id="DejaVuSans-2212" d="M 678 2272 
L 4684 2272 
L 4684 1741 
L 678 1741 
L 678 2272 
z
" transform="scale(0.015625)"/>
        <path id="DejaVuSans-2e" d="M 684 794 
L 1344 794 
L 1344 0 
L 684 0 
L 684 794 
z
" transform="scale(0.015625)"/>
       </defs>
       <use xlink:href="#DejaVuSans-2212"/>
       <use xlink:href="#DejaVuSans-30" x="83.789062"/>
       <use xlink:href="#DejaVuSans-2e" x="147.412109"/>
       <use xlink:href="#DejaVuSans-30" x="179.199219"/>
       <use xlink:href="#DejaVuSans-34" x="242.822266"/>
      </g>
     </g>
    </g>
    <g id="ytick_7">
     <g id="line2d_47">
      <path d="M 58.523438 289.93187 
L 668.650457 289.93187 
" clip-path="url(#pc8af049c94)" style="fill: none; stroke-dasharray: 0.8,1.32; stroke-dashoffset: 0; stroke: #b0b0b0; stroke-opacity: 0.6; stroke-width: 0.8"/>
     </g>
     <g id="line2d_48">
      <g>
       <use xlink:href="#m65f26cf97a" x="58.523438" y="289.93187" style="stroke: #000000; stroke-width: 0.8"/>
      </g>
     </g>
     <g id="text_12">
      <!-- −0.02 -->
      <g transform="translate(20.878125 293.731088) scale(0.1 -0.1)">
       <use xlink:href="#DejaVuSans-2212"/>
       <use xlink:href="#DejaVuSans-30" x="83.789062"/>
       <use xlink:href="#DejaVuSans-2e" x="147.412109"/>
       <use xlink:href="#DejaVuSans-30" x="179.199219"/>
       <use xlink:href="#DejaVuSans-32" x="242.822266"/>
      </g>
     </g>
    </g>
    <g id="ytick_8">
     <g id="line2d_49">
      <path d="M 58.523438 263.71476 
L 668.650457 263.71476 
" clip-path="url(#pc8af049c94)" style="fill: none; stroke-dasharray: 0.8,1.32; stroke-dashoffset: 0; stroke: #b0b0b0; stroke-opacity: 0.6; stroke-width: 0.8"/>
     </g>
     <g id="line2d_50">
      <g>
       <use xlink:href="#m65f26cf97a" x="58.523438" y="263.71476" style="stroke: #000000; stroke-width: 0.8"/>
      </g>
     </g>
     <g id="text_13">
      <!-- 0.00 -->
      <g transform="translate(29.257813 267.513979) scale(0.1 -0.1)">
       <use xlink:href="#DejaVuSans-30"/>
       <use xlink:href="#DejaVuSans-2e" x="63.623047"/>
       <use xlink:href="#DejaVuSans-30" x="95.410156"/>
       <use xlink:href="#DejaVuSans-30" x="159.033203"/>
      </g>
     </g>
    </g>
    <g id="ytick_9">
     <g id="line2d_51">
      <path d="M 58.523438 237.49765 
L 668.650457 237.49765 
" clip-path="url(#pc8af049c94)" style="fill: none; stroke-dasharray: 0.8,1.32; stroke-dashoffset: 0; stroke: #b0b0b0; stroke-opacity: 0.6; stroke-width: 0.8"/>
     </g>
     <g id="line2d_52">
      <g>
       <use xlink:href="#m65f26cf97a" x="58.523438" y="237.49765" style="stroke: #000000; stroke-width: 0.8"/>
      </g>
     </g>
     <g id="text_14">
      <!-- 0.02 -->
      <g transform="translate(29.257813 241.296869) scale(0.1 -0.1)">
       <use xlink:href="#DejaVuSans-30"/>
       <use xlink:href="#DejaVuSans-2e" x="63.623047"/>
       <use xlink:href="#DejaVuSans-30" x="95.410156"/>
       <use xlink:href="#DejaVuSans-32" x="159.033203"/>
      </g>
     </g>
    </g>
    <g id="ytick_10">
     <g id="line2d_53">
      <path d="M 58.523438 211.280541 
L 668.650457 211.280541 
" clip-path="url(#pc8af049c94)" style="fill: none; stroke-dasharray: 0.8,1.32; stroke-dashoffset: 0; stroke: #b0b0b0; stroke-opacity: 0.6; stroke-width: 0.8"/>
     </g>
     <g id="line2d_54">
      <g>
       <use xlink:href="#m65f26cf97a" x="58.523438" y="211.280541" style="stroke: #000000; stroke-width: 0.8"/>
      </g>
     </g>
     <g id="text_15">
      <!-- 0.04 -->
      <g transform="translate(29.257813 215.079759) scale(0.1 -0.1)">
       <use xlink:href="#DejaVuSans-30"/>
       <use xlink:href="#DejaVuSans-2e" x="63.623047"/>
       <use xlink:href="#DejaVuSans-30" x="95.410156"/>
       <use xlink:href="#DejaVuSans-34" x="159.033203"/>
      </g>
     </g>
    </g>
    <g id="text_16">
     <!-- Velocidad (°/s/mm/s) -->
     <g transform="translate(14.798438 315.817104) rotate(-90) scale(0.1 -0.1)">
      <defs>
       <path id="DejaVuSans-56" d="M 1831 0 
L 50 4666 
L 709 4666 
L 2188 738 
L 3669 4666 
L 4325 4666 
L 2547 0 
L 1831 0 
z
" transform="scale(0.015625)"/>
       <path id="DejaVuSans-6c" d="M 603 4863 
L 1178 4863 
L 1178 0 
L 603 0 
L 603 4863 
z
" transform="scale(0.015625)"/>
       <path id="DejaVuSans-61" d="M 2194 1759 
Q 1497 1759 1228 1600 
Q 959 1441 959 1056 
Q 959 750 1161 570 
Q 1363 391 1709 391 
Q 2188 391 2477 730 
Q 2766 1069 2766 1631 
L 2766 1759 
L 2194 1759 
z
M 3341 1997 
L 3341 0 
L 2766 0 
L 2766 531 
Q 2569 213 2275 61 
Q 1981 -91 1556 -91 
Q 1019 -91 701 211 
Q 384 513 384 1019 
Q 384 1609 779 1909 
Q 1175 2209 1959 2209 
L 2766 2209 
L 2766 2266 
Q 2766 2663 2505 2880 
Q 2244 3097 1772 3097 
Q 1472 3097 1187 3025 
Q 903 2953 641 2809 
L 641 3341 
Q 956 3463 1253 3523 
Q 1550 3584 1831 3584 
Q 2591 3584 2966 3190 
Q 3341 2797 3341 1997 
z
" transform="scale(0.015625)"/>
      </defs>
      <use xlink:href="#DejaVuSans-56"/>
      <use xlink:href="#DejaVuSans-65" x="60.658203"/>
      <use xlink:href="#DejaVuSans-6c" x="122.181641"/>
      <use xlink:href="#DejaVuSans-6f" x="149.964844"/>
      <use xlink:href="#DejaVuSans-63" x="211.146484"/>
      <use xlink:href="#DejaVuSans-69" x="266.126953"/>
      <use xlink:href="#DejaVuSans-64" x="293.910156"/>
      <use xlink:href="#DejaVuSans-61" x="357.386719"/>
      <use xlink:href="#DejaVuSans-64" x="418.666016"/>
      <use xlink:href="#DejaVuSans-20" x="482.142578"/>
      <use xlink:href="#DejaVuSans-28" x="513.929688"/>
      <use xlink:href="#DejaVuSans-b0" x="552.943359"/>
      <use xlink:href="#DejaVuSans-2f" x="602.943359"/>
      <use xlink:href="#DejaVuSans-73" x="636.634766"/>
      <use xlink:href="#DejaVuSans-2f" x="688.734375"/>
      <use xlink:href="#DejaVuSans-6d" x="722.425781"/>
      <use xlink:href="#DejaVuSans-6d" x="819.837891"/>
      <use xlink:href="#DejaVuSans-2f" x="917.25"/>
      <use xlink:href="#DejaVuSans-73" x="950.941406"/>
      <use xlink:href="#DejaVuSans-29" x="1003.041016"/>
     </g>
    </g>
   </g>
   <g id="line2d_55">
    <path d="M 86.256484 263.71476 
L 93.668956 263.71476 
L 99.158583 263.71476 
L 105.567398 263.71476 
L 111.675689 263.71476 
L 117.319109 263.71476 
L 123.817002 263.71476 
L 130.995258 263.71476 
L 136.644046 263.71476 
L 141.841933 263.71476 
L 148.168466 263.71476 
L 154.419723 263.71476 
L 162.140209 263.71476 
L 169.759448 263.71476 
L 175.322604 263.71476 
L 181.821115 263.71476 
L 190.769636 263.71476 
L 202.253366 263.71476 
L 208.91794 263.71476 
L 217.33945 263.71476 
L 222.941809 263.71476 
L 230.242008 263.71476 
L 237.824238 263.71476 
L 244.227138 263.71476 
L 251.204471 263.71476 
L 257.303316 263.71476 
L 263.737113 263.71476 
L 269.783558 263.71476 
L 275.532696 263.71476 
L 281.222386 263.71476 
L 287.515693 263.71476 
L 293.08814 263.71476 
L 298.67661 263.71476 
L 303.881916 263.71476 
L 310.125718 263.71476 
L 315.75494 263.71476 
L 322.136742 263.71476 
L 327.73456 263.71476 
L 333.242019 263.71476 
L 338.500767 263.71476 
L 344.12885 263.71476 
L 350.044277 263.71476 
L 355.771484 263.71476 
L 362.087861 263.71476 
L 367.605212 263.71476 
L 372.691643 263.71476 
L 378.217119 263.71476 
L 383.905043 263.71476 
L 389.307521 263.71476 
L 394.948152 263.71476 
L 401.197268 263.71476 
L 406.702044 263.71476 
L 411.621432 263.71476 
L 417.289901 263.71476 
L 423.498119 263.71476 
L 428.636773 263.71476 
L 434.453063 263.71476 
L 440.588693 263.71476 
L 446.832185 263.71476 
L 452.431208 263.71476 
L 457.971934 263.71476 
L 463.773208 263.71476 
L 469.180863 263.71476 
L 474.671241 263.71476 
L 480.134682 263.71476 
L 486.276169 263.71476 
L 491.322147 263.71476 
L 496.76171 263.71476 
L 503.012821 263.71476 
L 508.695277 263.71476 
L 513.867904 263.71476 
L 520.178172 263.71476 
L 525.691957 263.71476 
L 531.394976 263.71476 
L 536.951406 263.71476 
L 542.236619 263.71476 
L 547.985723 263.71476 
L 553.021607 263.71476 
L 559.139026 263.71476 
L 564.240534 263.71476 
L 585.097071 263.71476 
L 590.21107 263.71476 
L 593.528851 263.71476 
L 596.267578 263.71476 
L 600.715224 263.71476 
L 604.431201 263.71476 
L 607.235654 263.71476 
L 611.773238 263.71476 
L 615.281822 263.71476 
L 618.363141 263.71476 
L 621.160637 263.71476 
L 624.2368 263.71476 
L 627.723854 263.71476 
L 631.397172 263.71476 
L 634.728296 263.71476 
L 637.830288 263.71476 
L 640.917411 263.71476 
" clip-path="url(#pc8af049c94)" style="fill: none; stroke: #d62728; stroke-width: 1.5; stroke-linecap: square"/>
   </g>
   <g id="line2d_56">
    <path d="M 86.256484 263.71476 
L 93.668956 263.71476 
L 99.158583 263.71476 
L 105.567398 263.71476 
L 111.675689 263.71476 
L 117.319109 263.71476 
L 123.817002 263.71476 
L 130.995258 263.71476 
L 136.644046 263.71476 
L 141.841933 263.71476 
L 148.168466 263.71476 
L 154.419723 263.71476 
L 162.140209 263.71476 
L 169.759448 263.71476 
L 175.322604 263.71476 
L 181.821115 263.71476 
L 190.769636 263.71476 
L 202.253366 263.71476 
L 208.91794 263.71476 
L 217.33945 263.71476 
L 222.941809 263.71476 
L 230.242008 263.71476 
L 237.824238 263.71476 
L 244.227138 263.71476 
L 251.204471 263.71476 
L 257.303316 263.71476 
L 263.737113 263.71476 
L 269.783558 263.71476 
L 275.532696 263.71476 
L 281.222386 263.71476 
L 287.515693 263.71476 
L 293.08814 263.71476 
L 298.67661 263.71476 
L 303.881916 263.71476 
L 310.125718 263.71476 
L 315.75494 263.71476 
L 322.136742 263.71476 
L 327.73456 263.71476 
L 333.242019 263.71476 
L 338.500767 263.71476 
L 344.12885 263.71476 
L 350.044277 263.71476 
L 355.771484 263.71476 
L 362.087861 263.71476 
L 367.605212 263.71476 
L 372.691643 263.71476 
L 378.217119 263.71476 
L 383.905043 263.71476 
L 389.307521 263.71476 
L 394.948152 263.71476 
L 401.197268 263.71476 
L 406.702044 263.71476 
L 411.621432 263.71476 
L 417.289901 263.71476 
L 423.498119 263.71476 
L 428.636773 263.71476 
L 434.453063 263.71476 
L 440.588693 263.71476 
L 446.832185 263.71476 
L 452.431208 263.71476 
L 457.971934 263.71476 
L 463.773208 263.71476 
L 469.180863 263.71476 
L 474.671241 263.71476 
L 480.134682 263.71476 
L 486.276169 263.71476 
L 491.322147 263.71476 
L 496.76171 263.71476 
L 503.012821 263.71476 
L 508.695277 263.71476 
L 513.867904 263.71476 
L 520.178172 263.71476 
L 525.691957 263.71476 
L 531.394976 263.71476 
L 536.951406 263.71476 
L 542.236619 263.71476 
L 547.985723 263.71476 
L 553.021607 263.71476 
L 559.139026 263.71476 
L 564.240534 263.71476 
L 585.097071 263.71476 
L 590.21107 263.71476 
L 593.528851 263.71476 
L 596.267578 263.71476 
L 600.715224 263.71476 
L 604.431201 263.71476 
L 607.235654 263.71476 
L 611.773238 263.71476 
L 615.281822 263.71476 
L 618.363141 263.71476 
L 621.160637 263.71476 
L 624.2368 263.71476 
L 627.723854 263.71476 
L 631.397172 263.71476 
L 634.728296 263.71476 
L 637.830288 263.71476 
L 640.917411 263.71476 
" clip-path="url(#pc8af049c94)" style="fill: none; stroke-dasharray: 5.55,2.4; stroke-dashoffset: 0; stroke: #d62728; stroke-width: 1.5"/>
   </g>
   <g id="line2d_57">
    <path d="M 86.256484 263.71476 
L 93.668956 263.71476 
L 99.158583 263.71476 
L 105.567398 263.71476 
L 111.675689 263.71476 
L 117.319109 263.71476 
L 123.817002 263.71476 
L 130.995258 263.71476 
L 136.644046 263.71476 
L 141.841933 263.71476 
L 148.168466 263.71476 
L 154.419723 263.71476 
L 162.140209 263.71476 
L 169.759448 263.71476 
L 175.322604 263.71476 
L 181.821115 263.71476 
L 190.769636 263.71476 
L 202.253366 263.71476 
L 208.91794 263.71476 
L 217.33945 263.71476 
L 222.941809 263.71476 
L 230.242008 263.71476 
L 237.824238 263.71476 
L 244.227138 263.71476 
L 251.204471 263.71476 
L 257.303316 263.71476 
L 263.737113 263.71476 
L 269.783558 263.71476 
L 275.532696 263.71476 
L 281.222386 263.71476 
L 287.515693 263.71476 
L 293.08814 263.71476 
L 298.67661 263.71476 
L 303.881916 263.71476 
L 310.125718 263.71476 
L 315.75494 263.71476 
L 322.136742 263.71476 
L 327.73456 263.71476 
L 333.242019 263.71476 
L 338.500767 263.71476 
L 344.12885 263.71476 
L 350.044277 263.71476 
L 355.771484 263.71476 
L 362.087861 263.71476 
L 367.605212 263.71476 
L 372.691643 263.71476 
L 378.217119 263.71476 
L 383.905043 263.71476 
L 389.307521 263.71476 
L 394.948152 263.71476 
L 401.197268 263.71476 
L 406.702044 263.71476 
L 411.621432 263.71476 
L 417.289901 263.71476 
L 423.498119 263.71476 
L 428.636773 263.71476 
L 434.453063 263.71476 
L 440.588693 263.71476 
L 446.832185 263.71476 
L 452.431208 263.71476 
L 457.971934 263.71476 
L 463.773208 263.71476 
L 469.180863 263.71476 
L 474.671241 263.71476 
L 480.134682 263.71476 
L 486.276169 263.71476 
L 491.322147 263.71476 
L 496.76171 263.71476 
L 503.012821 263.71476 
L 508.695277 263.71476 
L 513.867904 263.71476 
L 520.178172 263.71476 
L 525.691957 263.71476 
L 531.394976 263.71476 
L 536.951406 263.71476 
L 542.236619 263.71476 
L 547.985723 263.71476 
L 553.021607 263.71476 
L 559.139026 263.71476 
L 564.240534 263.71476 
L 585.097071 263.71476 
L 590.21107 263.71476 
L 593.528851 263.71476 
L 596.267578 263.71476 
L 600.715224 263.71476 
L 604.431201 263.71476 
L 607.235654 263.71476 
L 611.773238 263.71476 
L 615.281822 263.71476 
L 618.363141 263.71476 
L 621.160637 263.71476 
L 624.2368 263.71476 
L 627.723854 263.71476 
L 631.397172 263.71476 
L 634.728296 263.71476 
L 637.830288 263.71476 
L 640.917411 263.71476 
" clip-path="url(#pc8af049c94)" style="fill: none; stroke-dasharray: 1.5,2.475; stroke-dashoffset: 0; stroke: #000000; stroke-opacity: 0.7; stroke-width: 1.5"/>
   </g>
   <g id="patch_9">
    <path d="M 58.523438 335.811812 
L 58.523438 191.617708 
" style="fill: none; stroke: #000000; stroke-width: 0.8; stroke-linejoin: miter; stroke-linecap: square"/>
   </g>
   <g id="patch_10">
    <path d="M 668.650457 335.811812 
L 668.650457 191.617708 
" style="fill: none; stroke: #000000; stroke-width: 0.8; stroke-linejoin: miter; stroke-linecap: square"/>
   </g>
   <g id="patch_11">
    <path d="M 58.523437 335.811812 
L 668.650457 335.811812 
" style="fill: none; stroke: #000000; stroke-width: 0.8; stroke-linejoin: miter; stroke-linecap: square"/>
   </g>
   <g id="patch_12">
    <path d="M 58.523437 191.617708 
L 668.650457 191.617708 
" style="fill: none; stroke: #000000; stroke-width: 0.8; stroke-linejoin: miter; stroke-linecap: square"/>
   </g>
   <g id="text_17">
    <!-- Velocidad y Error -->
    <g transform="translate(312.669447 185.617708) scale(0.12 -0.12)">
     <use xlink:href="#DejaVuSans-56"/>
     <use xlink:href="#DejaVuSans-65" x="60.658203"/>
     <use xlink:href="#DejaVuSans-6c" x="122.181641"/>
     <use xlink:href="#DejaVuSans-6f" x="149.964844"/>
     <use xlink:href="#DejaVuSans-63" x="211.146484"/>
     <use xlink:href="#DejaVuSans-69" x="266.126953"/>
     <use xlink:href="#DejaVuSans-64" x="293.910156"/>
     <use xlink:href="#DejaVuSans-61" x="357.386719"/>
     <use xlink:href="#DejaVuSans-64" x="418.666016"/>
     <use xlink:href="#DejaVuSans-20" x="482.142578"/>
     <use xlink:href="#DejaVuSans-79" x="513.929688"/>
     <use xlink:href="#DejaVuSans-20" x="573.109375"/>
     <use xlink:href="#DejaVuSans-45" x="604.896484"/>
     <use xlink:href="#DejaVuSans-72" x="668.080078"/>
     <use xlink:href="#DejaVuSans-72" x="707.443359"/>
     <use xlink:href="#DejaVuSans-6f" x="746.306641"/>
     <use xlink:href="#DejaVuSans-72" x="807.488281"/>
    </g>
   </g>
   <g id="legend_2">
    <g id="patch_13">
     <path d="M 502.151707 209.760208 
L 663.050457 209.760208 
Q 664.650457 209.760208 664.650457 208.160208 
L 664.650457 197.217708 
Q 664.650457 195.617708 663.050457 195.617708 
L 502.151707 195.617708 
Q 500.551707 195.617708 500.551707 197.217708 
L 500.551707 208.160208 
Q 500.551707 209.760208 502.151707 209.760208 
z
" style="fill: #ffffff; opacity: 0.8; stroke: #cccccc; stroke-linejoin: miter"/>
    </g>
    <g id="line2d_58">
     <path d="M 503.751707 202.096458 
L 511.751707 202.096458 
L 519.751707 202.096458 
" style="fill: none; stroke: #d62728; stroke-width: 1.5; stroke-linecap: square"/>
    </g>
    <g id="text_18">
     <!-- SP -->
     <g transform="translate(526.151707 204.896458) scale(0.08 -0.08)">
      <use xlink:href="#DejaVuSans-53"/>
      <use xlink:href="#DejaVuSans-50" x="63.476562"/>
     </g>
    </g>
    <g id="line2d_59">
     <path d="M 552.054207 202.096458 
L 560.054207 202.096458 
L 568.054207 202.096458 
" style="fill: none; stroke-dasharray: 5.55,2.4; stroke-dashoffset: 0; stroke: #d62728; stroke-width: 1.5"/>
    </g>
    <g id="text_19">
     <!-- Medido -->
     <g transform="translate(574.454207 204.896458) scale(0.08 -0.08)">
      <use xlink:href="#DejaVuSans-4d"/>
      <use xlink:href="#DejaVuSans-65" x="86.279297"/>
      <use xlink:href="#DejaVuSans-64" x="147.802734"/>
      <use xlink:href="#DejaVuSans-69" x="211.279297"/>
      <use xlink:href="#DejaVuSans-64" x="239.0625"/>
      <use xlink:href="#DejaVuSans-6f" x="302.539062"/>
     </g>
    </g>
    <g id="line2d_60">
     <path d="M 619.554207 202.096458 
L 627.554207 202.096458 
L 635.554207 202.096458 
" style="fill: none; stroke-dasharray: 1.5,2.475; stroke-dashoffset: 0; stroke: #000000; stroke-opacity: 0.7; stroke-width: 1.5"/>
    </g>
    <g id="text_20">
     <!-- Error -->
     <g transform="translate(641.954207 204.896458) scale(0.08 -0.08)">
      <use xlink:href="#DejaVuSans-45"/>
      <use xlink:href="#DejaVuSans-72" x="63.183594"/>
      <use xlink:href="#DejaVuSans-72" x="102.546875"/>
      <use xlink:href="#DejaVuSans-6f" x="141.410156"/>
      <use xlink:href="#DejaVuSans-72" x="202.591797"/>
     </g>
    </g>
   </g>
  </g>
  <g id="axes_3">
   <g id="patch_14">
    <path d="M 58.523438 505.100145 
L 668.650457 505.100145 
L 668.650457 360.906042 
L 58.523438 360.906042 
z
" style="fill: #ffffff"/>
   </g>
   <g id="matplotlib.axis_5">
    <g id="xtick_15">
     <g id="line2d_61">
      <path d="M 61.914033 505.100145 
L 61.914033 360.906042 
" clip-path="url(#p071de9d914)" style="fill: none; stroke-dasharray: 0.8,1.32; stroke-dashoffset: 0; stroke: #b0b0b0; stroke-opacity: 0.6; stroke-width: 0.8"/>
     </g>
     <g id="line2d_62">
      <g>
       <use xlink:href="#mdb7fd1f564" x="61.914033" y="505.100145" style="stroke: #000000; stroke-width: 0.8"/>
      </g>
     </g>
     <g id="text_21">
      <!-- 305 -->
      <g transform="translate(52.370283 519.698582) scale(0.1 -0.1)">
       <defs>
        <path id="DejaVuSans-35" d="M 691 4666 
L 3169 4666 
L 3169 4134 
L 1269 4134 
L 1269 2991 
Q 1406 3038 1543 3061 
Q 1681 3084 1819 3084 
Q 2600 3084 3056 2656 
Q 3513 2228 3513 1497 
Q 3513 744 3044 326 
Q 2575 -91 1722 -91 
Q 1428 -91 1123 -41 
Q 819 9 494 109 
L 494 744 
Q 775 591 1075 516 
Q 1375 441 1709 441 
Q 2250 441 2565 725 
Q 2881 1009 2881 1497 
Q 2881 1984 2565 2268 
Q 2250 2553 1709 2553 
Q 1456 2553 1204 2497 
Q 953 2441 691 2322 
L 691 4666 
z
" transform="scale(0.015625)"/>
       </defs>
       <use xlink:href="#DejaVuSans-33"/>
       <use xlink:href="#DejaVuSans-30" x="63.623047"/>
       <use xlink:href="#DejaVuSans-35" x="127.246094"/>
      </g>
     </g>
    </g>
    <g id="xtick_16">
     <g id="line2d_63">
      <path d="M 154.477221 505.100145 
L 154.477221 360.906042 
" clip-path="url(#p071de9d914)" style="fill: none; stroke-dasharray: 0.8,1.32; stroke-dashoffset: 0; stroke: #b0b0b0; stroke-opacity: 0.6; stroke-width: 0.8"/>
     </g>
     <g id="line2d_64">
      <g>
       <use xlink:href="#mdb7fd1f564" x="154.477221" y="505.100145" style="stroke: #000000; stroke-width: 0.8"/>
      </g>
     </g>
     <g id="text_22">
      <!-- 310 -->
      <g transform="translate(144.933471 519.698582) scale(0.1 -0.1)">
       <use xlink:href="#DejaVuSans-33"/>
       <use xlink:href="#DejaVuSans-31" x="63.623047"/>
       <use xlink:href="#DejaVuSans-30" x="127.246094"/>
      </g>
     </g>
    </g>
    <g id="xtick_17">
     <g id="line2d_65">
      <path d="M 247.040409 505.100145 
L 247.040409 360.906042 
" clip-path="url(#p071de9d914)" style="fill: none; stroke-dasharray: 0.8,1.32; stroke-dashoffset: 0; stroke: #b0b0b0; stroke-opacity: 0.6; stroke-width: 0.8"/>
     </g>
     <g id="line2d_66">
      <g>
       <use xlink:href="#mdb7fd1f564" x="247.040409" y="505.100145" style="stroke: #000000; stroke-width: 0.8"/>
      </g>
     </g>
     <g id="text_23">
      <!-- 315 -->
      <g transform="translate(237.496659 519.698582) scale(0.1 -0.1)">
       <use xlink:href="#DejaVuSans-33"/>
       <use xlink:href="#DejaVuSans-31" x="63.623047"/>
       <use xlink:href="#DejaVuSans-35" x="127.246094"/>
      </g>
     </g>
    </g>
    <g id="xtick_18">
     <g id="line2d_67">
      <path d="M 339.603597 505.100145 
L 339.603597 360.906042 
" clip-path="url(#p071de9d914)" style="fill: none; stroke-dasharray: 0.8,1.32; stroke-dashoffset: 0; stroke: #b0b0b0; stroke-opacity: 0.6; stroke-width: 0.8"/>
     </g>
     <g id="line2d_68">
      <g>
       <use xlink:href="#mdb7fd1f564" x="339.603597" y="505.100145" style="stroke: #000000; stroke-width: 0.8"/>
      </g>
     </g>
     <g id="text_24">
      <!-- 320 -->
      <g transform="translate(330.059847 519.698582) scale(0.1 -0.1)">
       <use xlink:href="#DejaVuSans-33"/>
       <use xlink:href="#DejaVuSans-32" x="63.623047"/>
       <use xlink:href="#DejaVuSans-30" x="127.246094"/>
      </g>
     </g>
    </g>
    <g id="xtick_19">
     <g id="line2d_69">
      <path d="M 432.166786 505.100145 
L 432.166786 360.906042 
" clip-path="url(#p071de9d914)" style="fill: none; stroke-dasharray: 0.8,1.32; stroke-dashoffset: 0; stroke: #b0b0b0; stroke-opacity: 0.6; stroke-width: 0.8"/>
     </g>
     <g id="line2d_70">
      <g>
       <use xlink:href="#mdb7fd1f564" x="432.166786" y="505.100145" style="stroke: #000000; stroke-width: 0.8"/>
      </g>
     </g>
     <g id="text_25">
      <!-- 325 -->
      <g transform="translate(422.623036 519.698582) scale(0.1 -0.1)">
       <use xlink:href="#DejaVuSans-33"/>
       <use xlink:href="#DejaVuSans-32" x="63.623047"/>
       <use xlink:href="#DejaVuSans-35" x="127.246094"/>
      </g>
     </g>
    </g>
    <g id="xtick_20">
     <g id="line2d_71">
      <path d="M 524.729974 505.100145 
L 524.729974 360.906042 
" clip-path="url(#p071de9d914)" style="fill: none; stroke-dasharray: 0.8,1.32; stroke-dashoffset: 0; stroke: #b0b0b0; stroke-opacity: 0.6; stroke-width: 0.8"/>
     </g>
     <g id="line2d_72">
      <g>
       <use xlink:href="#mdb7fd1f564" x="524.729974" y="505.100145" style="stroke: #000000; stroke-width: 0.8"/>
      </g>
     </g>
     <g id="text_26">
      <!-- 330 -->
      <g transform="translate(515.186224 519.698582) scale(0.1 -0.1)">
       <use xlink:href="#DejaVuSans-33"/>
       <use xlink:href="#DejaVuSans-33" x="63.623047"/>
       <use xlink:href="#DejaVuSans-30" x="127.246094"/>
      </g>
     </g>
    </g>
    <g id="xtick_21">
     <g id="line2d_73">
      <path d="M 617.293162 505.100145 
L 617.293162 360.906042 
" clip-path="url(#p071de9d914)" style="fill: none; stroke-dasharray: 0.8,1.32; stroke-dashoffset: 0; stroke: #b0b0b0; stroke-opacity: 0.6; stroke-width: 0.8"/>
     </g>
     <g id="line2d_74">
      <g>
       <use xlink:href="#mdb7fd1f564" x="617.293162" y="505.100145" style="stroke: #000000; stroke-width: 0.8"/>
      </g>
     </g>
     <g id="text_27">
      <!-- 335 -->
      <g transform="translate(607.749412 519.698582) scale(0.1 -0.1)">
       <use xlink:href="#DejaVuSans-33"/>
       <use xlink:href="#DejaVuSans-33" x="63.623047"/>
       <use xlink:href="#DejaVuSans-35" x="127.246094"/>
      </g>
     </g>
    </g>
    <g id="text_28">
     <!-- Tiempo [s] -->
     <g transform="translate(337.024447 533.376707) scale(0.1 -0.1)">
      <defs>
       <path id="DejaVuSans-54" d="M -19 4666 
L 3928 4666 
L 3928 4134 
L 2272 4134 
L 2272 0 
L 1638 0 
L 1638 4134 
L -19 4134 
L -19 4666 
z
" transform="scale(0.015625)"/>
       <path id="DejaVuSans-70" d="M 1159 525 
L 1159 -1331 
L 581 -1331 
L 581 3500 
L 1159 3500 
L 1159 2969 
Q 1341 3281 1617 3432 
Q 1894 3584 2278 3584 
Q 2916 3584 3314 3078 
Q 3713 2572 3713 1747 
Q 3713 922 3314 415 
Q 2916 -91 2278 -91 
Q 1894 -91 1617 61 
Q 1341 213 1159 525 
z
M 3116 1747 
Q 3116 2381 2855 2742 
Q 2594 3103 2138 3103 
Q 1681 3103 1420 2742 
Q 1159 2381 1159 1747 
Q 1159 1113 1420 752 
Q 1681 391 2138 391 
Q 2594 391 2855 752 
Q 3116 1113 3116 1747 
z
" transform="scale(0.015625)"/>
       <path id="DejaVuSans-5b" d="M 550 4863 
L 1875 4863 
L 1875 4416 
L 1125 4416 
L 1125 -397 
L 1875 -397 
L 1875 -844 
L 550 -844 
L 550 4863 
z
" transform="scale(0.015625)"/>
       <path id="DejaVuSans-5d" d="M 1947 4863 
L 1947 -844 
L 622 -844 
L 622 -397 
L 1369 -397 
L 1369 4416 
L 622 4416 
L 622 4863 
L 1947 4863 
z
" transform="scale(0.015625)"/>
      </defs>
      <use xlink:href="#DejaVuSans-54"/>
      <use xlink:href="#DejaVuSans-69" x="57.958984"/>
      <use xlink:href="#DejaVuSans-65" x="85.742188"/>
      <use xlink:href="#DejaVuSans-6d" x="147.265625"/>
      <use xlink:href="#DejaVuSans-70" x="244.677734"/>
      <use xlink:href="#DejaVuSans-6f" x="308.154297"/>
      <use xlink:href="#DejaVuSans-20" x="369.335938"/>
      <use xlink:href="#DejaVuSans-5b" x="401.123047"/>
      <use xlink:href="#DejaVuSans-73" x="440.136719"/>
      <use xlink:href="#DejaVuSans-5d" x="492.236328"/>
     </g>
    </g>
   </g>
   <g id="matplotlib.axis_6">
    <g id="ytick_11">
     <g id="line2d_75">
      <path d="M 58.523438 485.437313 
L 668.650457 485.437313 
" clip-path="url(#p071de9d914)" style="fill: none; stroke-dasharray: 0.8,1.32; stroke-dashoffset: 0; stroke: #b0b0b0; stroke-opacity: 0.6; stroke-width: 0.8"/>
     </g>
     <g id="line2d_76">
      <g>
       <use xlink:href="#m65f26cf97a" x="58.523438" y="485.437313" style="stroke: #000000; stroke-width: 0.8"/>
      </g>
     </g>
     <g id="text_29">
      <!-- −0.04 -->
      <g transform="translate(20.878125 489.236531) scale(0.1 -0.1)">
       <use xlink:href="#DejaVuSans-2212"/>
       <use xlink:href="#DejaVuSans-30" x="83.789062"/>
       <use xlink:href="#DejaVuSans-2e" x="147.412109"/>
       <use xlink:href="#DejaVuSans-30" x="179.199219"/>
       <use xlink:href="#DejaVuSans-34" x="242.822266"/>
      </g>
     </g>
    </g>
    <g id="ytick_12">
     <g id="line2d_77">
      <path d="M 58.523438 459.220203 
L 668.650457 459.220203 
" clip-path="url(#p071de9d914)" style="fill: none; stroke-dasharray: 0.8,1.32; stroke-dashoffset: 0; stroke: #b0b0b0; stroke-opacity: 0.6; stroke-width: 0.8"/>
     </g>
     <g id="line2d_78">
      <g>
       <use xlink:href="#m65f26cf97a" x="58.523438" y="459.220203" style="stroke: #000000; stroke-width: 0.8"/>
      </g>
     </g>
     <g id="text_30">
      <!-- −0.02 -->
      <g transform="translate(20.878125 463.019422) scale(0.1 -0.1)">
       <use xlink:href="#DejaVuSans-2212"/>
       <use xlink:href="#DejaVuSans-30" x="83.789062"/>
       <use xlink:href="#DejaVuSans-2e" x="147.412109"/>
       <use xlink:href="#DejaVuSans-30" x="179.199219"/>
       <use xlink:href="#DejaVuSans-32" x="242.822266"/>
      </g>
     </g>
    </g>
    <g id="ytick_13">
     <g id="line2d_79">
      <path d="M 58.523438 433.003093 
L 668.650457 433.003093 
" clip-path="url(#p071de9d914)" style="fill: none; stroke-dasharray: 0.8,1.32; stroke-dashoffset: 0; stroke: #b0b0b0; stroke-opacity: 0.6; stroke-width: 0.8"/>
     </g>
     <g id="line2d_80">
      <g>
       <use xlink:href="#m65f26cf97a" x="58.523438" y="433.003093" style="stroke: #000000; stroke-width: 0.8"/>
      </g>
     </g>
     <g id="text_31">
      <!-- 0.00 -->
      <g transform="translate(29.257813 436.802312) scale(0.1 -0.1)">
       <use xlink:href="#DejaVuSans-30"/>
       <use xlink:href="#DejaVuSans-2e" x="63.623047"/>
       <use xlink:href="#DejaVuSans-30" x="95.410156"/>
       <use xlink:href="#DejaVuSans-30" x="159.033203"/>
      </g>
     </g>
    </g>
    <g id="ytick_14">
     <g id="line2d_81">
      <path d="M 58.523438 406.785984 
L 668.650457 406.785984 
" clip-path="url(#p071de9d914)" style="fill: none; stroke-dasharray: 0.8,1.32; stroke-dashoffset: 0; stroke: #b0b0b0; stroke-opacity: 0.6; stroke-width: 0.8"/>
     </g>
     <g id="line2d_82">
      <g>
       <use xlink:href="#m65f26cf97a" x="58.523438" y="406.785984" style="stroke: #000000; stroke-width: 0.8"/>
      </g>
     </g>
     <g id="text_32">
      <!-- 0.02 -->
      <g transform="translate(29.257813 410.585202) scale(0.1 -0.1)">
       <use xlink:href="#DejaVuSans-30"/>
       <use xlink:href="#DejaVuSans-2e" x="63.623047"/>
       <use xlink:href="#DejaVuSans-30" x="95.410156"/>
       <use xlink:href="#DejaVuSans-32" x="159.033203"/>
      </g>
     </g>
    </g>
    <g id="ytick_15">
     <g id="line2d_83">
      <path d="M 58.523438 380.568874 
L 668.650457 380.568874 
" clip-path="url(#p071de9d914)" style="fill: none; stroke-dasharray: 0.8,1.32; stroke-dashoffset: 0; stroke: #b0b0b0; stroke-opacity: 0.6; stroke-width: 0.8"/>
     </g>
     <g id="line2d_84">
      <g>
       <use xlink:href="#m65f26cf97a" x="58.523438" y="380.568874" style="stroke: #000000; stroke-width: 0.8"/>
      </g>
     </g>
     <g id="text_33">
      <!-- 0.04 -->
      <g transform="translate(29.257813 384.368093) scale(0.1 -0.1)">
       <use xlink:href="#DejaVuSans-30"/>
       <use xlink:href="#DejaVuSans-2e" x="63.623047"/>
       <use xlink:href="#DejaVuSans-30" x="95.410156"/>
       <use xlink:href="#DejaVuSans-34" x="159.033203"/>
      </g>
     </g>
    </g>
    <g id="text_34">
     <!-- Aceleración (°/s²/mm/s²) -->
     <g transform="translate(14.798438 494.116375) rotate(-90) scale(0.1 -0.1)">
      <defs>
       <path id="DejaVuSans-41" d="M 2188 4044 
L 1331 1722 
L 3047 1722 
L 2188 4044 
z
M 1831 4666 
L 2547 4666 
L 4325 0 
L 3669 0 
L 3244 1197 
L 1141 1197 
L 716 0 
L 50 0 
L 1831 4666 
z
" transform="scale(0.015625)"/>
       <path id="DejaVuSans-b2" d="M 838 2444 
L 2163 2444 
L 2163 2088 
L 294 2088 
L 294 2431 
Q 400 2528 597 2703 
Q 1672 3656 1672 3950 
Q 1672 4156 1509 4282 
Q 1347 4409 1081 4409 
Q 919 4409 728 4354 
Q 538 4300 313 4191 
L 313 4575 
Q 553 4663 761 4706 
Q 969 4750 1147 4750 
Q 1600 4750 1872 4544 
Q 2144 4338 2144 4000 
Q 2144 3566 1109 2678 
Q 934 2528 838 2444 
z
" transform="scale(0.015625)"/>
      </defs>
      <use xlink:href="#DejaVuSans-41"/>
      <use xlink:href="#DejaVuSans-63" x="66.658203"/>
      <use xlink:href="#DejaVuSans-65" x="121.638672"/>
      <use xlink:href="#DejaVuSans-6c" x="183.162109"/>
      <use xlink:href="#DejaVuSans-65" x="210.945312"/>
      <use xlink:href="#DejaVuSans-72" x="272.46875"/>
      <use xlink:href="#DejaVuSans-61" x="313.582031"/>
      <use xlink:href="#DejaVuSans-63" x="374.861328"/>
      <use xlink:href="#DejaVuSans-69" x="429.841797"/>
      <use xlink:href="#DejaVuSans-f3" x="457.625"/>
      <use xlink:href="#DejaVuSans-6e" x="518.806641"/>
      <use xlink:href="#DejaVuSans-20" x="582.185547"/>
      <use xlink:href="#DejaVuSans-28" x="613.972656"/>
      <use xlink:href="#DejaVuSans-b0" x="652.986328"/>
      <use xlink:href="#DejaVuSans-2f" x="702.986328"/>
      <use xlink:href="#DejaVuSans-73" x="736.677734"/>
      <use xlink:href="#DejaVuSans-b2" x="788.777344"/>
      <use xlink:href="#DejaVuSans-2f" x="828.865234"/>
      <use xlink:href="#DejaVuSans-6d" x="862.556641"/>
      <use xlink:href="#DejaVuSans-6d" x="959.96875"/>
      <use xlink:href="#DejaVuSans-2f" x="1057.380859"/>
      <use xlink:href="#DejaVuSans-73" x="1091.072266"/>
      <use xlink:href="#DejaVuSans-b2" x="1143.171875"/>
      <use xlink:href="#DejaVuSans-29" x="1183.259766"/>
     </g>
    </g>
   </g>
   <g id="line2d_85">
    <path d="M 86.256484 433.003093 
L 93.668956 433.003093 
L 99.158583 433.003093 
L 105.567398 433.003093 
L 111.675689 433.003093 
L 117.319109 433.003093 
L 123.817002 433.003093 
L 130.995258 433.003093 
L 136.644046 433.003093 
L 141.841933 433.003093 
L 148.168466 433.003093 
L 154.419723 433.003093 
L 162.140209 433.003093 
L 169.759448 433.003093 
L 175.322604 433.003093 
L 181.821115 433.003093 
L 190.769636 433.003093 
L 202.253366 433.003093 
L 208.91794 433.003093 
L 217.33945 433.003093 
L 222.941809 433.003093 
L 230.242008 433.003093 
L 237.824238 433.003093 
L 244.227138 433.003093 
L 251.204471 433.003093 
L 257.303316 433.003093 
L 263.737113 433.003093 
L 269.783558 433.003093 
L 275.532696 433.003093 
L 281.222386 433.003093 
L 287.515693 433.003093 
L 293.08814 433.003093 
L 298.67661 433.003093 
L 303.881916 433.003093 
L 310.125718 433.003093 
L 315.75494 433.003093 
L 322.136742 433.003093 
L 327.73456 433.003093 
L 333.242019 433.003093 
L 338.500767 433.003093 
L 344.12885 433.003093 
L 350.044277 433.003093 
L 355.771484 433.003093 
L 362.087861 433.003093 
L 367.605212 433.003093 
L 372.691643 433.003093 
L 378.217119 433.003093 
L 383.905043 433.003093 
L 389.307521 433.003093 
L 394.948152 433.003093 
L 401.197268 433.003093 
L 406.702044 433.003093 
L 411.621432 433.003093 
L 417.289901 433.003093 
L 423.498119 433.003093 
L 428.636773 433.003093 
L 434.453063 433.003093 
L 440.588693 433.003093 
L 446.832185 433.003093 
L 452.431208 433.003093 
L 457.971934 433.003093 
L 463.773208 433.003093 
L 469.180863 433.003093 
L 474.671241 433.003093 
L 480.134682 433.003093 
L 486.276169 433.003093 
L 491.322147 433.003093 
L 496.76171 433.003093 
L 503.012821 433.003093 
L 508.695277 433.003093 
L 513.867904 433.003093 
L 520.178172 433.003093 
L 525.691957 433.003093 
L 531.394976 433.003093 
L 536.951406 433.003093 
L 542.236619 433.003093 
L 547.985723 433.003093 
L 553.021607 433.003093 
L 559.139026 433.003093 
L 564.240534 433.003093 
L 585.097071 433.003093 
L 590.21107 433.003093 
L 593.528851 433.003093 
L 596.267578 433.003093 
L 600.715224 433.003093 
L 604.431201 433.003093 
L 607.235654 433.003093 
L 611.773238 433.003093 
L 615.281822 433.003093 
L 618.363141 433.003093 
L 621.160637 433.003093 
L 624.2368 433.003093 
L 627.723854 433.003093 
L 631.397172 433.003093 
L 634.728296 433.003093 
L 637.830288 433.003093 
L 640.917411 433.003093 
" clip-path="url(#p071de9d914)" style="fill: none; stroke: #d62728; stroke-width: 1.5; stroke-linecap: square"/>
   </g>
   <g id="line2d_86">
    <path d="M 86.256484 433.003093 
L 93.668956 433.003093 
L 99.158583 433.003093 
L 105.567398 433.003093 
L 111.675689 433.003093 
L 117.319109 433.003093 
L 123.817002 433.003093 
L 130.995258 433.003093 
L 136.644046 433.003093 
L 141.841933 433.003093 
L 148.168466 433.003093 
L 154.419723 433.003093 
L 162.140209 433.003093 
L 169.759448 433.003093 
L 175.322604 433.003093 
L 181.821115 433.003093 
L 190.769636 433.003093 
L 202.253366 433.003093 
L 208.91794 433.003093 
L 217.33945 433.003093 
L 222.941809 433.003093 
L 230.242008 433.003093 
L 237.824238 433.003093 
L 244.227138 433.003093 
L 251.204471 433.003093 
L 257.303316 433.003093 
L 263.737113 433.003093 
L 269.783558 433.003093 
L 275.532696 433.003093 
L 281.222386 433.003093 
L 287.515693 433.003093 
L 293.08814 433.003093 
L 298.67661 433.003093 
L 303.881916 433.003093 
L 310.125718 433.003093 
L 315.75494 433.003093 
L 322.136742 433.003093 
L 327.73456 433.003093 
L 333.242019 433.003093 
L 338.500767 433.003093 
L 344.12885 433.003093 
L 350.044277 433.003093 
L 355.771484 433.003093 
L 362.087861 433.003093 
L 367.605212 433.003093 
L 372.691643 433.003093 
L 378.217119 433.003093 
L 383.905043 433.003093 
L 389.307521 433.003093 
L 394.948152 433.003093 
L 401.197268 433.003093 
L 406.702044 433.003093 
L 411.621432 433.003093 
L 417.289901 433.003093 
L 423.498119 433.003093 
L 428.636773 433.003093 
L 434.453063 433.003093 
L 440.588693 433.003093 
L 446.832185 433.003093 
L 452.431208 433.003093 
L 457.971934 433.003093 
L 463.773208 433.003093 
L 469.180863 433.003093 
L 474.671241 433.003093 
L 480.134682 433.003093 
L 486.276169 433.003093 
L 491.322147 433.003093 
L 496.76171 433.003093 
L 503.012821 433.003093 
L 508.695277 433.003093 
L 513.867904 433.003093 
L 520.178172 433.003093 
L 525.691957 433.003093 
L 531.394976 433.003093 
L 536.951406 433.003093 
L 542.236619 433.003093 
L 547.985723 433.003093 
L 553.021607 433.003093 
L 559.139026 433.003093 
L 564.240534 433.003093 
L 585.097071 433.003093 
L 590.21107 433.003093 
L 593.528851 433.003093 
L 596.267578 433.003093 
L 600.715224 433.003093 
L 604.431201 433.003093 
L 607.235654 433.003093 
L 611.773238 433.003093 
L 615.281822 433.003093 
L 618.363141 433.003093 
L 621.160637 433.003093 
L 624.2368 433.003093 
L 627.723854 433.003093 
L 631.397172 433.003093 
L 634.728296 433.003093 
L 637.830288 433.003093 
L 640.917411 433.003093 
" clip-path="url(#p071de9d914)" style="fill: none; stroke-dasharray: 5.55,2.4; stroke-dashoffset: 0; stroke: #d62728; stroke-width: 1.5"/>
   </g>
   <g id="line2d_87">
    <path d="M 86.256484 433.003093 
L 93.668956 433.003093 
L 99.158583 433.003093 
L 105.567398 433.003093 
L 111.675689 433.003093 
L 117.319109 433.003093 
L 123.817002 433.003093 
L 130.995258 433.003093 
L 136.644046 433.003093 
L 141.841933 433.003093 
L 148.168466 433.003093 
L 154.419723 433.003093 
L 162.140209 433.003093 
L 169.759448 433.003093 
L 175.322604 433.003093 
L 181.821115 433.003093 
L 190.769636 433.003093 
L 202.253366 433.003093 
L 208.91794 433.003093 
L 217.33945 433.003093 
L 222.941809 433.003093 
L 230.242008 433.003093 
L 237.824238 433.003093 
L 244.227138 433.003093 
L 251.204471 433.003093 
L 257.303316 433.003093 
L 263.737113 433.003093 
L 269.783558 433.003093 
L 275.532696 433.003093 
L 281.222386 433.003093 
L 287.515693 433.003093 
L 293.08814 433.003093 
L 298.67661 433.003093 
L 303.881916 433.003093 
L 310.125718 433.003093 
L 315.75494 433.003093 
L 322.136742 433.003093 
L 327.73456 433.003093 
L 333.242019 433.003093 
L 338.500767 433.003093 
L 344.12885 433.003093 
L 350.044277 433.003093 
L 355.771484 433.003093 
L 362.087861 433.003093 
L 367.605212 433.003093 
L 372.691643 433.003093 
L 378.217119 433.003093 
L 383.905043 433.003093 
L 389.307521 433.003093 
L 394.948152 433.003093 
L 401.197268 433.003093 
L 406.702044 433.003093 
L 411.621432 433.003093 
L 417.289901 433.003093 
L 423.498119 433.003093 
L 428.636773 433.003093 
L 434.453063 433.003093 
L 440.588693 433.003093 
L 446.832185 433.003093 
L 452.431208 433.003093 
L 457.971934 433.003093 
L 463.773208 433.003093 
L 469.180863 433.003093 
L 474.671241 433.003093 
L 480.134682 433.003093 
L 486.276169 433.003093 
L 491.322147 433.003093 
L 496.76171 433.003093 
L 503.012821 433.003093 
L 508.695277 433.003093 
L 513.867904 433.003093 
L 520.178172 433.003093 
L 525.691957 433.003093 
L 531.394976 433.003093 
L 536.951406 433.003093 
L 542.236619 433.003093 
L 547.985723 433.003093 
L 553.021607 433.003093 
L 559.139026 433.003093 
L 564.240534 433.003093 
L 585.097071 433.003093 
L 590.21107 433.003093 
L 593.528851 433.003093 
L 596.267578 433.003093 
L 600.715224 433.003093 
L 604.431201 433.003093 
L 607.235654 433.003093 
L 611.773238 433.003093 
L 615.281822 433.003093 
L 618.363141 433.003093 
L 621.160637 433.003093 
L 624.2368 433.003093 
L 627.723854 433.003093 
L 631.397172 433.003093 
L 634.728296 433.003093 
L 637.830288 433.003093 
L 640.917411 433.003093 
" clip-path="url(#p071de9d914)" style="fill: none; stroke-dasharray: 1.5,2.475; stroke-dashoffset: 0; stroke: #000000; stroke-opacity: 0.7; stroke-width: 1.5"/>
   </g>
   <g id="patch_15">
    <path d="M 58.523438 505.100145 
L 58.523438 360.906042 
" style="fill: none; stroke: #000000; stroke-width: 0.8; stroke-linejoin: miter; stroke-linecap: square"/>
   </g>
   <g id="patch_16">
    <path d="M 668.650457 505.100145 
L 668.650457 360.906042 
" style="fill: none; stroke: #000000; stroke-width: 0.8; stroke-linejoin: miter; stroke-linecap: square"/>
   </g>
   <g id="patch_17">
    <path d="M 58.523437 505.100145 
L 668.650457 505.100145 
" style="fill: none; stroke: #000000; stroke-width: 0.8; stroke-linejoin: miter; stroke-linecap: square"/>
   </g>
   <g id="patch_18">
    <path d="M 58.523437 360.906042 
L 668.650457 360.906042 
" style="fill: none; stroke: #000000; stroke-width: 0.8; stroke-linejoin: miter; stroke-linecap: square"/>
   </g>
   <g id="text_35">
    <!-- Aceleración y Error -->
    <g transform="translate(306.667572 354.906042) scale(0.12 -0.12)">
     <use xlink:href="#DejaVuSans-41"/>
     <use xlink:href="#DejaVuSans-63" x="66.658203"/>
     <use xlink:href="#DejaVuSans-65" x="121.638672"/>
     <use xlink:href="#DejaVuSans-6c" x="183.162109"/>
     <use xlink:href="#DejaVuSans-65" x="210.945312"/>
     <use xlink:href="#DejaVuSans-72" x="272.46875"/>
     <use xlink:href="#DejaVuSans-61" x="313.582031"/>
     <use xlink:href="#DejaVuSans-63" x="374.861328"/>
     <use xlink:href="#DejaVuSans-69" x="429.841797"/>
     <use xlink:href="#DejaVuSans-f3" x="457.625"/>
     <use xlink:href="#DejaVuSans-6e" x="518.806641"/>
     <use xlink:href="#DejaVuSans-20" x="582.185547"/>
     <use xlink:href="#DejaVuSans-79" x="613.972656"/>
     <use xlink:href="#DejaVuSans-20" x="673.152344"/>
     <use xlink:href="#DejaVuSans-45" x="704.939453"/>
     <use xlink:href="#DejaVuSans-72" x="768.123047"/>
     <use xlink:href="#DejaVuSans-72" x="807.486328"/>
     <use xlink:href="#DejaVuSans-6f" x="846.349609"/>
     <use xlink:href="#DejaVuSans-72" x="907.53125"/>
    </g>
   </g>
   <g id="legend_3">
    <g id="patch_19">
     <path d="M 502.151707 379.048542 
L 663.050457 379.048542 
Q 664.650457 379.048542 664.650457 377.448542 
L 664.650457 366.506042 
Q 664.650457 364.906042 663.050457 364.906042 
L 502.151707 364.906042 
Q 500.551707 364.906042 500.551707 366.506042 
L 500.551707 377.448542 
Q 500.551707 379.048542 502.151707 379.048542 
z
" style="fill: #ffffff; opacity: 0.8; stroke: #cccccc; stroke-linejoin: miter"/>
    </g>
    <g id="line2d_88">
     <path d="M 503.751707 371.384792 
L 511.751707 371.384792 
L 519.751707 371.384792 
" style="fill: none; stroke: #d62728; stroke-width: 1.5; stroke-linecap: square"/>
    </g>
    <g id="text_36">
     <!-- SP -->
     <g transform="translate(526.151707 374.184792) scale(0.08 -0.08)">
      <use xlink:href="#DejaVuSans-53"/>
      <use xlink:href="#DejaVuSans-50" x="63.476562"/>
     </g>
    </g>
    <g id="line2d_89">
     <path d="M 552.054207 371.384792 
L 560.054207 371.384792 
L 568.054207 371.384792 
" style="fill: none; stroke-dasharray: 5.55,2.4; stroke-dashoffset: 0; stroke: #d62728; stroke-width: 1.5"/>
    </g>
    <g id="text_37">
     <!-- Medido -->
     <g transform="translate(574.454207 374.184792) scale(0.08 -0.08)">
      <use xlink:href="#DejaVuSans-4d"/>
      <use xlink:href="#DejaVuSans-65" x="86.279297"/>
      <use xlink:href="#DejaVuSans-64" x="147.802734"/>
      <use xlink:href="#DejaVuSans-69" x="211.279297"/>
      <use xlink:href="#DejaVuSans-64" x="239.0625"/>
      <use xlink:href="#DejaVuSans-6f" x="302.539062"/>
     </g>
    </g>
    <g id="line2d_90">
     <path d="M 619.554207 371.384792 
L 627.554207 371.384792 
L 635.554207 371.384792 
" style="fill: none; stroke-dasharray: 1.5,2.475; stroke-dashoffset: 0; stroke: #000000; stroke-opacity: 0.7; stroke-width: 1.5"/>
    </g>
    <g id="text_38">
     <!-- Error -->
     <g transform="translate(641.954207 374.184792) scale(0.08 -0.08)">
      <use xlink:href="#DejaVuSans-45"/>
      <use xlink:href="#DejaVuSans-72" x="63.183594"/>
      <use xlink:href="#DejaVuSans-72" x="102.546875"/>
      <use xlink:href="#DejaVuSans-6f" x="141.410156"/>
      <use xlink:href="#DejaVuSans-72" x="202.591797"/>
     </g>
    </g>
   </g>
  </g>
 </g>
 <defs>
  <clipPath id="p98225b89ef">
   <rect x="58.523438" y="22.798125" width="610.12702" height="144.194103"/>
  </clipPath>
  <clipPath id="pc8af049c94">
   <rect x="58.523438" y="191.617708" width="610.12702" height="144.194103"/>
  </clipPath>
  <clipPath id="p071de9d914">
   <rect x="58.523438" y="360.906042" width="610.12702" height="144.194103"/>
  </clipPath>
 </defs>
</svg>
